<svg width="40" height="40" viewBox="0 0 40 40" fill="none" xmlns="http://www.w3.org/2000/svg">
<path d="M25.833 12.4993L29.6663 16.3327C29.9779 16.6381 30.3968 16.8091 30.833 16.8091C31.2693 16.8091 31.6881 16.6381 31.9997 16.3327L35.4997 12.8327C35.8051 12.5211 35.9761 12.1023 35.9761 11.666C35.9761 11.2298 35.8051 10.8109 35.4997 10.4993L31.6663 6.66602" stroke="#0C3BB6" stroke-width="2.5" stroke-linecap="round" stroke-linejoin="round"/>
<path d="M35 3.33398L19 19.334" stroke="#0C3BB6" stroke-width="2.5" stroke-linecap="round" stroke-linejoin="round"/>
<path d="M12.4997 34.9993C17.5623 34.9993 21.6663 30.8953 21.6663 25.8327C21.6663 20.7701 17.5623 16.666 12.4997 16.666C7.43706 16.666 3.33301 20.7701 3.33301 25.8327C3.33301 30.8953 7.43706 34.9993 12.4997 34.9993Z" stroke="#0C3BB6" stroke-width="2.5" stroke-linecap="round" stroke-linejoin="round"/>
</svg>
