<svg width="40" height="40" viewBox="0 0 40 40" fill="none" xmlns="http://www.w3.org/2000/svg">
<path d="M10 36.6673V6.66732C10 5.78326 10.3512 4.93542 10.9763 4.31029C11.6014 3.68517 12.4493 3.33398 13.3333 3.33398H26.6667C27.5507 3.33398 28.3986 3.68517 29.0237 4.31029C29.6488 4.93542 30 5.78326 30 6.66732V36.6673H10Z" stroke="#232176" stroke-width="2.5" stroke-linecap="round" stroke-linejoin="round"/>
<path d="M9.99967 20H6.66634C5.78229 20 4.93444 20.3512 4.30932 20.9763C3.6842 21.6014 3.33301 22.4493 3.33301 23.3333V33.3333C3.33301 34.2174 3.6842 35.0652 4.30932 35.6904C4.93444 36.3155 5.78229 36.6667 6.66634 36.6667H9.99967" stroke="#232176" stroke-width="2.5" stroke-linecap="round" stroke-linejoin="round"/>
<path d="M30 15H33.3333C34.2174 15 35.0652 15.3512 35.6904 15.9763C36.3155 16.6014 36.6667 17.4493 36.6667 18.3333V33.3333C36.6667 34.2174 36.3155 35.0652 35.6904 35.6904C35.0652 36.3155 34.2174 36.6667 33.3333 36.6667H30" stroke="#232176" stroke-width="2.5" stroke-linecap="round" stroke-linejoin="round"/>
<path d="M16.667 10H23.3337" stroke="#232176" stroke-width="2.5" stroke-linecap="round" stroke-linejoin="round"/>
<path d="M16.667 16.666H23.3337" stroke="#232176" stroke-width="2.5" stroke-linecap="round" stroke-linejoin="round"/>
<path d="M16.667 23.334H23.3337" stroke="#232176" stroke-width="2.5" stroke-linecap="round" stroke-linejoin="round"/>
<path d="M16.667 30H23.3337" stroke="#232176" stroke-width="2.5" stroke-linecap="round" stroke-linejoin="round"/>
</svg>
