<svg width="20" height="20" viewBox="0 0 20 20" fill="none" xmlns="http://www.w3.org/2000/svg">
<g clip-path="url(#clip0_2356_12505)">
<path d="M1.50781 16.3613V19.7037H11.2131" stroke="#232176" stroke-miterlimit="10" stroke-linecap="round" stroke-linejoin="round"/>
<path d="M6.07496 9.33887V10.8691L2.59746 12.0587C1.94602 12.2817 1.50781 12.8941 1.50781 13.583V15.0847" stroke="#232176" stroke-miterlimit="10" stroke-linecap="round" stroke-linejoin="round"/>
<path d="M10.7264 4.23047V7.06902C10.7264 8.56836 9.51138 9.7834 8.012 9.7834H7.56325C6.06431 9.7834 4.84888 8.5684 4.84888 7.06902V4.23047" stroke="#232176" stroke-miterlimit="10" stroke-linecap="round" stroke-linejoin="round"/>
<path d="M6.52319 5.34277V5.72723" stroke="#232176" stroke-miterlimit="10" stroke-linecap="round" stroke-linejoin="round"/>
<path d="M9.04688 5.34277V5.72723" stroke="#232176" stroke-miterlimit="10" stroke-linecap="round" stroke-linejoin="round"/>
<path d="M7.05322 7.31934C7.05322 7.72504 7.38209 8.05391 7.78779 8.05391C8.1935 8.05391 8.52236 7.72504 8.52236 7.31934" stroke="#232176" stroke-miterlimit="10" stroke-linecap="round" stroke-linejoin="round"/>
<path d="M3.54175 16.0645V19.7038" stroke="#232176" stroke-miterlimit="10" stroke-linecap="round" stroke-linejoin="round"/>
<path d="M10.7266 4.23047H11.3148C11.7655 4.23047 12.1309 4.59586 12.1309 5.04664V5.6582C12.1309 6.10895 11.7655 6.47438 11.3148 6.47438H10.7266V4.23047Z" stroke="#232176" stroke-miterlimit="10" stroke-linecap="round" stroke-linejoin="round"/>
<path d="M4.84896 4.23047H4.26075C3.81001 4.23047 3.44458 4.59586 3.44458 5.04664V5.6582C3.44458 6.10895 3.80997 6.47438 4.26075 6.47438H4.84896V4.23047Z" stroke="#232176" stroke-miterlimit="10" stroke-linecap="round" stroke-linejoin="round"/>
<path d="M6.07411 10.8711L7.78786 12.1615L5.36157 13.6439V11.113L6.07411 10.8711Z" stroke="#232176" stroke-miterlimit="10" stroke-linecap="round" stroke-linejoin="round"/>
<path d="M9.50159 10.8711L7.78784 12.1615L10.2142 13.6439V11.113L9.50159 10.8711Z" stroke="#232176" stroke-miterlimit="10" stroke-linecap="round" stroke-linejoin="round"/>
<path d="M11.3252 4.23031H10.5411C9.68575 4.23031 8.92997 3.67367 8.67622 2.8568L8.4963 2.27754L7.8561 3.30805C7.49981 3.88156 6.87255 4.23035 6.19735 4.23035H4.25024V2.63629C4.25024 1.34211 5.29938 0.292969 6.59356 0.292969H8.98192C10.2761 0.292969 11.3252 1.34211 11.3252 2.63629V4.23031Z" stroke="#232176" stroke-miterlimit="10" stroke-linecap="round" stroke-linejoin="round"/>
<path d="M9.0469 19.704L8.33644 14.1215L9.00108 12.9033L7.78507 12.1621L6.57476 12.9033L7.24503 14.1277L6.52319 19.7039L9.0469 19.704Z" stroke="#232176" stroke-miterlimit="10" stroke-linecap="round" stroke-linejoin="round"/>
<path d="M18.4923 17.9195V19.7074H11.2131V8.78906H12.996" stroke="#232176" stroke-miterlimit="10" stroke-linecap="round" stroke-linejoin="round"/>
<path d="M14.2727 8.78906H16.6672L18.4922 10.6086V16.6427" stroke="#232176" stroke-miterlimit="10" stroke-linecap="round" stroke-linejoin="round"/>
<path d="M16.667 15.4609H13.0276V12.5796L14.8473 11.2148L16.667 12.5796V15.4609Z" stroke="#232176" stroke-miterlimit="10" stroke-linecap="round" stroke-linejoin="round"/>
<path d="M15.4539 13.6416H14.2407V15.4613H15.4539V13.6416Z" stroke="#232176" stroke-miterlimit="10" stroke-linecap="round" stroke-linejoin="round"/>
<path d="M16.667 12.5801L17.2736 13.035" stroke="#232176" stroke-miterlimit="10" stroke-linecap="round" stroke-linejoin="round"/>
<path d="M13.0277 12.5801L12.4211 13.035" stroke="#232176" stroke-miterlimit="10" stroke-linecap="round" stroke-linejoin="round"/>
<path d="M17.2736 15.4609H16.667" stroke="#232176" stroke-miterlimit="10" stroke-linecap="round" stroke-linejoin="round"/>
<path d="M12.4211 15.4609H13.0277" stroke="#232176" stroke-miterlimit="10" stroke-linecap="round" stroke-linejoin="round"/>
<path d="M13.0276 17.2803H16.667" stroke="#232176" stroke-miterlimit="10" stroke-linecap="round" stroke-linejoin="round"/>
<path d="M13.6343 18.4941H16.0606" stroke="#232176" stroke-miterlimit="10" stroke-linecap="round" stroke-linejoin="round"/>
<path d="M16.667 8.78906V10.6088H18.492" stroke="#232176" stroke-miterlimit="10" stroke-linecap="round" stroke-linejoin="round"/>
<path d="M9.50049 9.33887V10.8691L11.2131 11.4549" stroke="#232176" stroke-miterlimit="10" stroke-linecap="round" stroke-linejoin="round"/>
</g>
<defs>
<clipPath id="clip0_2356_12505">
<rect width="20" height="20" fill="white"/>
</clipPath>
</defs>
</svg>
