<svg width="18" height="20" viewBox="0 0 18 20" fill="none" xmlns="http://www.w3.org/2000/svg">
<path d="M0.5 16.3613V19.7037H10.2053" stroke="#232176" stroke-miterlimit="10" stroke-linecap="round" stroke-linejoin="round"/>
<path d="M5.06715 9.33887V10.8691L1.58965 12.0587C0.938203 12.2817 0.5 12.8941 0.5 13.583V15.0847" stroke="#232176" stroke-miterlimit="10" stroke-linecap="round" stroke-linejoin="round"/>
<path d="M9.71856 4.23047V7.06902C9.71856 8.56836 8.50356 9.7834 7.00419 9.7834H6.55544C5.05649 9.7834 3.84106 8.5684 3.84106 7.06902V4.23047" stroke="#232176" stroke-miterlimit="10" stroke-linecap="round" stroke-linejoin="round"/>
<path d="M5.51538 5.34277V5.72723" stroke="#232176" stroke-miterlimit="10" stroke-linecap="round" stroke-linejoin="round"/>
<path d="M8.03906 5.34277V5.72723" stroke="#232176" stroke-miterlimit="10" stroke-linecap="round" stroke-linejoin="round"/>
<path d="M6.04541 7.31934C6.04541 7.72504 6.37428 8.05391 6.77998 8.05391C7.18568 8.05391 7.51455 7.72504 7.51455 7.31934" stroke="#232176" stroke-miterlimit="10" stroke-linecap="round" stroke-linejoin="round"/>
<path d="M2.53394 16.0645V19.7038" stroke="#232176" stroke-miterlimit="10" stroke-linecap="round" stroke-linejoin="round"/>
<path d="M9.71875 4.23047H10.307C10.7577 4.23047 11.1231 4.59586 11.1231 5.04664V5.6582C11.1231 6.10895 10.7577 6.47438 10.307 6.47438H9.71875V4.23047Z" stroke="#232176" stroke-miterlimit="10" stroke-linecap="round" stroke-linejoin="round"/>
<path d="M3.84114 4.23047H3.25294C2.8022 4.23047 2.43677 4.59586 2.43677 5.04664V5.6582C2.43677 6.10895 2.80216 6.47438 3.25294 6.47438H3.84114V4.23047Z" stroke="#232176" stroke-miterlimit="10" stroke-linecap="round" stroke-linejoin="round"/>
<path d="M5.0663 10.8711L6.78005 12.1615L4.35376 13.6439V11.113L5.0663 10.8711Z" stroke="#232176" stroke-miterlimit="10" stroke-linecap="round" stroke-linejoin="round"/>
<path d="M8.49378 10.8711L6.78003 12.1615L9.20636 13.6439V11.113L8.49378 10.8711Z" stroke="#232176" stroke-miterlimit="10" stroke-linecap="round" stroke-linejoin="round"/>
<path d="M10.3174 4.23031H9.53329C8.67794 4.23031 7.92216 3.67367 7.66841 2.8568L7.48849 2.27754L6.84829 3.30805C6.492 3.88156 5.86474 4.23035 5.18954 4.23035H3.24243V2.63629C3.24243 1.34211 4.29157 0.292969 5.58575 0.292969H7.97411C9.26829 0.292969 10.3174 1.34211 10.3174 2.63629V4.23031Z" stroke="#232176" stroke-miterlimit="10" stroke-linecap="round" stroke-linejoin="round"/>
<path d="M8.03909 19.704L7.32862 14.1215L7.99327 12.9033L6.77726 12.1621L5.56694 12.9033L6.23722 14.1277L5.51538 19.7039L8.03909 19.704Z" stroke="#232176" stroke-miterlimit="10" stroke-linecap="round" stroke-linejoin="round"/>
<path d="M17.4845 17.9195V19.7074H10.2053V8.78906H11.9882" stroke="#232176" stroke-miterlimit="10" stroke-linecap="round" stroke-linejoin="round"/>
<path d="M13.2649 8.78906H15.6594L17.4844 10.6086V16.6427" stroke="#232176" stroke-miterlimit="10" stroke-linecap="round" stroke-linejoin="round"/>
<path d="M15.6592 15.4609H12.0198V12.5796L13.8395 11.2148L15.6592 12.5796V15.4609Z" stroke="#232176" stroke-miterlimit="10" stroke-linecap="round" stroke-linejoin="round"/>
<path d="M14.4461 13.6416H13.2329V15.4613H14.4461V13.6416Z" stroke="#232176" stroke-miterlimit="10" stroke-linecap="round" stroke-linejoin="round"/>
<path d="M15.6592 12.5801L16.2658 13.035" stroke="#232176" stroke-miterlimit="10" stroke-linecap="round" stroke-linejoin="round"/>
<path d="M12.0199 12.5801L11.4133 13.035" stroke="#232176" stroke-miterlimit="10" stroke-linecap="round" stroke-linejoin="round"/>
<path d="M16.2658 15.4609H15.6592" stroke="#232176" stroke-miterlimit="10" stroke-linecap="round" stroke-linejoin="round"/>
<path d="M11.4133 15.4609H12.0199" stroke="#232176" stroke-miterlimit="10" stroke-linecap="round" stroke-linejoin="round"/>
<path d="M12.0198 17.2803H15.6592" stroke="#232176" stroke-miterlimit="10" stroke-linecap="round" stroke-linejoin="round"/>
<path d="M12.6265 18.4941H15.0528" stroke="#232176" stroke-miterlimit="10" stroke-linecap="round" stroke-linejoin="round"/>
<path d="M15.6592 8.78906V10.6088H17.4842" stroke="#232176" stroke-miterlimit="10" stroke-linecap="round" stroke-linejoin="round"/>
<path d="M8.49268 9.33887V10.8691L10.2053 11.4549" stroke="#232176" stroke-miterlimit="10" stroke-linecap="round" stroke-linejoin="round"/>
</svg>
