<svg width="24" height="24" viewBox="0 0 24 24" fill="none" xmlns="http://www.w3.org/2000/svg">
<mask id="mask0_3290_4460" style="mask-type:alpha" maskUnits="userSpaceOnUse" x="0" y="0" width="24" height="24">
<rect width="24" height="24" fill="#D9D9D9"/>
</mask>
<g mask="url(#mask0_3290_4460)">
<path d="M15.6855 3.25781C15.9018 3.25781 16.0902 3.33736 16.25 3.49707C16.3965 3.64356 16.4697 3.82776 16.4697 4.04785C16.4696 4.26792 16.3955 4.45197 16.248 4.59961L14.958 5.88965C15.4079 6.13585 15.8093 6.43568 16.1621 6.78906C16.5148 7.14266 16.8194 7.54313 17.0752 7.99023H19.2002C19.4266 7.99028 19.6164 8.06662 19.7695 8.21973C19.9229 8.37308 19.9999 8.56351 20 8.79004C20 9.01688 19.923 9.20728 19.7695 9.36035C19.6164 9.51339 19.4267 9.5898 19.2002 9.58984H17.6777C17.7821 9.95897 17.8391 10.3352 17.8555 10.7178C17.8122 10.8391 17.7408 10.9718 17.6172 11.0723C17.5759 11.0996 17.5344 11.127 17.5068 11.1543C17.3142 11.2635 17.1215 11.25 17.0664 11.25C16.9701 11.25 16.8183 11.2498 16.667 11.1543C16.4213 11.0196 16.3061 10.7762 16.2539 10.5996C16.1832 9.56438 15.7712 8.66773 15.0137 7.91016C14.1781 7.0746 13.1733 6.65723 12 6.65723C10.8267 6.65723 9.82188 7.0746 8.98633 7.91016C8.15091 8.74567 7.7334 9.75059 7.7334 10.9238V15.1904C7.73348 16.3635 8.15106 17.3677 8.98633 18.2031C9.82188 19.0387 10.8267 19.457 12 19.457C13.1733 19.457 14.1781 19.0387 15.0137 18.2031C15.8387 17.3779 16.2555 16.388 16.2656 15.2334C16.3041 15.1186 16.3701 14.9873 16.4883 14.8818C16.722 14.6636 16.9972 14.6494 17.0664 14.6494C17.1215 14.6494 17.4798 14.6635 17.7275 14.9639C17.7856 15.0348 17.8251 15.1076 17.8535 15.1758C17.8534 15.1822 17.8536 15.1889 17.8535 15.1953C17.8446 15.6433 17.7858 16.086 17.6777 16.5234H19.2002C19.4268 16.5235 19.6163 16.6005 19.7695 16.7539C19.9228 16.9072 19.9999 17.0968 20 17.3232C20 17.5501 19.923 17.7405 19.7695 17.8936C19.6164 18.0466 19.4267 18.123 19.2002 18.123H17.0752C16.5472 19.0364 15.8343 19.7543 14.9365 20.2754C14.0387 20.7965 13.0597 21.0566 12 21.0566C10.9403 21.0566 9.96125 20.7965 9.06348 20.2754C8.16574 19.7543 7.45279 19.0364 6.9248 18.123H4.7998C4.57337 18.123 4.38362 18.0467 4.23047 17.8936C4.07707 17.7402 4.00002 17.5499 4 17.3232C4 17.0964 4.07705 16.906 4.23047 16.7529C4.38361 16.6 4.57339 16.5235 4.7998 16.5234H6.32227C6.2142 16.086 6.15539 15.6439 6.14648 15.1973C6.1376 14.7505 6.13379 14.3032 6.13379 13.8564H4.7998C4.57339 13.8564 4.38361 13.7801 4.23047 13.627C4.07708 13.4736 4.00004 13.2832 4 13.0566C4 12.8298 4.07705 12.6394 4.23047 12.4863C4.38362 12.3333 4.57338 12.2569 4.7998 12.2568H6.13379C6.13379 11.8057 6.13459 11.3561 6.13672 10.9082C6.13867 10.4604 6.20049 10.0206 6.32227 9.58984H4.7998C4.57341 9.5898 4.3836 9.51348 4.23047 9.36035C4.0771 9.20698 4.00005 9.01661 4 8.79004C4 8.56319 4.07705 8.37279 4.23047 8.21973C4.38362 8.06671 4.57336 7.99028 4.7998 7.99023H6.9248C7.18063 7.55397 7.48341 7.15581 7.83203 6.79688C8.18075 6.4381 8.58047 6.13579 9.03027 5.88965L7.75586 4.59961C7.60818 4.45531 7.53424 4.27484 7.53418 4.05859C7.53418 3.84224 7.61459 3.65396 7.77441 3.49414C7.92088 3.34773 8.10419 3.27441 8.32422 3.27441C8.54439 3.27446 8.72829 3.34859 8.87598 3.49609L10.5967 5.2168C11.0534 5.07743 11.5159 5.00782 11.9834 5.00781C12.4511 5.00781 12.9134 5.07742 13.3701 5.2168L15.1445 3.47949C15.2889 3.33177 15.4692 3.25782 15.6855 3.25781ZM13.1689 14.3896C13.3956 14.3896 13.586 14.4669 13.7393 14.6201C13.8925 14.7731 13.9696 14.9628 13.9697 15.1895C13.9697 15.4161 13.8926 15.6064 13.7393 15.7598C13.586 15.9132 13.3956 15.9902 13.1689 15.9902H10.8311C10.6044 15.9902 10.414 15.913 10.2607 15.7598C10.1075 15.6068 10.0303 15.4171 10.0303 15.1904C10.0303 14.9638 10.1073 14.7735 10.2607 14.6201C10.414 14.4667 10.6044 14.3896 10.8311 14.3896H13.1689ZM13.1689 10.123C13.3956 10.123 13.586 10.2003 13.7393 10.3535C13.8925 10.5065 13.9697 10.6962 13.9697 10.9229C13.9697 11.1495 13.8926 11.3398 13.7393 11.4932C13.586 11.6466 13.3956 11.7236 13.1689 11.7236H10.8311C10.6044 11.7236 10.414 11.6464 10.2607 11.4932C10.1075 11.3402 10.0303 11.1505 10.0303 10.9238C10.0303 10.6972 10.1073 10.5069 10.2607 10.3535C10.414 10.2001 10.6044 10.123 10.8311 10.123H13.1689Z" fill="black"/>
</g>
</svg>
