<svg width="24" height="24" viewBox="0 0 24 24" fill="none" xmlns="http://www.w3.org/2000/svg">
<g clip-path="url(#clip0_3264_6482)">
<path d="M21.6737 18.5536C21.0308 17.9805 20.468 17.3235 20.0004 16.6003C19.4898 15.602 19.1839 14.5117 19.1004 13.3936V10.1003C19.1048 8.344 18.4677 6.64658 17.3088 5.32691C16.15 4.00724 14.5491 3.15617 12.807 2.93359V2.07359C12.807 1.83755 12.7133 1.61118 12.5463 1.44427C12.3794 1.27736 12.1531 1.18359 11.917 1.18359C11.681 1.18359 11.4546 1.27736 11.2877 1.44427C11.1208 1.61118 11.027 1.83755 11.027 2.07359V2.94693C9.30053 3.18555 7.719 4.04176 6.57538 5.357C5.43175 6.67223 4.80351 8.35736 4.80702 10.1003V13.3936C4.72353 14.5117 4.41754 15.602 3.90702 16.6003C3.44761 17.3218 2.89382 17.9788 2.26036 18.5536C2.18925 18.6161 2.13225 18.693 2.09317 18.7792C2.05409 18.8654 2.03381 18.9589 2.03369 19.0536V19.9603C2.03369 20.1371 2.10393 20.3066 2.22895 20.4317C2.35398 20.5567 2.52355 20.6269 2.70036 20.6269H21.2337C21.4105 20.6269 21.5801 20.5567 21.7051 20.4317C21.8301 20.3066 21.9004 20.1371 21.9004 19.9603V19.0536C21.9002 18.9589 21.88 18.8654 21.8409 18.7792C21.8018 18.693 21.7448 18.6161 21.6737 18.5536ZM3.42036 19.2936C4.04063 18.6944 4.58676 18.0229 5.04702 17.2936C5.6901 16.0879 6.06531 14.7576 6.14702 13.3936V10.1003C6.12058 9.31895 6.25164 8.54031 6.53239 7.81071C6.81313 7.0811 7.23783 6.41545 7.78119 5.85339C8.32455 5.29134 8.97545 4.84437 9.69514 4.53911C10.4148 4.23385 11.1886 4.07653 11.9704 4.07653C12.7521 4.07653 13.5259 4.23385 14.2456 4.53911C14.9653 4.84437 15.6162 5.29134 16.1595 5.85339C16.7029 6.41545 17.1276 7.0811 17.4083 7.81071C17.6891 8.54031 17.8201 9.31895 17.7937 10.1003V13.3936C17.8754 14.7576 18.2506 16.0879 18.8937 17.2936C19.354 18.0229 19.9001 18.6944 20.5204 19.2936H3.42036Z" fill="#232176"/>
<path d="M12 22.854C12.42 22.8443 12.823 22.6864 13.1378 22.4083C13.4526 22.1301 13.6588 21.7496 13.72 21.334H10.2134C10.2764 21.7609 10.4923 22.1503 10.8209 22.4299C11.1496 22.7095 11.5686 22.8602 12 22.854Z" fill="#232176"/>
</g>
<defs>
<clipPath id="clip0_3264_6482">
<rect width="24" height="24" fill="white"/>
</clipPath>
</defs>
</svg>
