<svg width="13" height="13" viewBox="0 0 13 13" fill="none" xmlns="http://www.w3.org/2000/svg">
<path d="M7.52037 10.811C7.52037 10.9971 7.41069 11.1655 7.24227 11.2399C7.07189 11.3163 6.85646 11.2849 6.73504 11.1596L5.1683 9.74954C5.07038 9.66142 5.01359 9.53412 5.01359 9.40095C5.01359 9.26777 5.07038 9.14048 5.1683 9.05235L6.73504 7.64228C6.85646 7.51694 7.07189 7.48561 7.24227 7.56199C7.41069 7.63641 7.52037 7.80483 7.52037 7.99088V8.93092H7.83371C8.61316 8.93092 9.24378 8.30031 9.24378 7.52086V4.31493C8.60729 4.11517 8.14706 3.52176 8.14706 2.82065C8.14706 1.95542 8.84818 1.25391 9.7138 1.25391C10.5794 1.25391 11.2805 1.95542 11.2805 2.82065C11.2805 3.52176 10.8203 4.11517 10.1838 4.31493V7.52086C10.1838 8.81929 9.13215 9.87097 7.83371 9.87097H7.52037V10.811ZM10.3405 2.80302C10.3405 2.4746 10.0604 2.17633 9.7138 2.17633C9.36716 2.17633 9.0871 2.4746 9.0871 2.80302C9.0871 3.1667 9.36716 3.42972 9.7138 3.42972C10.0604 3.42972 10.3405 3.1667 10.3405 2.80302ZM5.01359 1.72393C5.01359 1.53828 5.12326 1.37009 5.29168 1.29457C5.46206 1.21905 5.65987 1.25041 5.79891 1.37457L7.36565 2.78461C7.46357 2.87372 7.52037 3.00082 7.52037 3.134C7.52037 3.26717 7.46357 3.39447 7.36565 3.4826L5.79891 4.89266C5.65987 5.018 5.46206 5.04933 5.29168 4.97295C5.12326 4.89853 5.01359 4.73011 5.01359 4.54406V3.60402H4.70024C3.92079 3.60402 3.29018 4.23463 3.29018 5.01408V8.22002C3.92666 8.41978 4.38689 9.01318 4.38689 9.71429C4.38689 10.5799 3.68578 11.281 2.82015 11.281C1.95492 11.281 1.25342 10.5799 1.25342 9.71429C1.25342 9.01318 1.71443 8.41978 2.35013 8.22002V5.01408C2.35013 3.71565 3.40181 2.66398 4.70024 2.66398H5.01359V1.72393ZM2.19346 9.71429C2.19346 10.0609 2.4741 10.341 2.82015 10.341C3.16621 10.341 3.44685 10.0609 3.44685 9.71429C3.44685 9.36765 3.16621 9.0876 2.82015 9.0876C2.4741 9.0876 2.19346 9.36765 2.19346 9.71429Z" fill="#98A2B3"/>
</svg>
