<svg width="24" height="24" viewBox="0 0 24 24" fill="none" xmlns="http://www.w3.org/2000/svg">
<mask id="mask0_527_8437" style="mask-type:alpha" maskUnits="userSpaceOnUse" x="0" y="0" width="24" height="24">
<rect width="24" height="24" rx="8" fill="#D9D9D9"/>
</mask>
<g mask="url(#mask0_527_8437)">
</g>
<g clip-path="url(#clip0_527_8437)">
<path fill-rule="evenodd" clip-rule="evenodd" d="M0 0H24V24H0V0Z" fill="url(#paint0_linear_527_8437)"/>
<path fill-rule="evenodd" clip-rule="evenodd" d="M0 0H24V8H0V0Z" fill="url(#paint1_linear_527_8437)"/>
<path fill-rule="evenodd" clip-rule="evenodd" d="M0 16H24V24H0V16Z" fill="url(#paint2_linear_527_8437)"/>
<path fill-rule="evenodd" clip-rule="evenodd" d="M0 8H24V16H0V8Z" fill="url(#paint3_linear_527_8437)"/>
<path d="M12.2347 12.2075L14.4184 14.235L14.2622 10.5529C14.2399 9.99506 13.7554 10.1226 13.4015 10.3234C13.0476 10.5529 12.6364 10.5529 12.2092 10.4031C11.7788 10.5529 11.3708 10.5529 11.0169 10.3234C10.6663 10.1226 10.1785 9.99506 10.1562 10.5529L10 14.235L12.2347 12.2075Z" fill="white" stroke="#C09300" stroke-width="0.0414427" stroke-linejoin="round"/>
<path d="M10.4081 10.4248L10.255 14.0048L10 14.2344L10.1562 10.5523C10.2315 10.4946 10.3169 10.4513 10.4081 10.4248ZM10.7141 10.6798L10.5866 13.6765L10.3315 13.9379L10.4846 10.479C10.5356 10.53 10.6854 10.6543 10.7141 10.6798ZM10.9914 10.9094L10.8926 13.4087L10.6854 13.6095L10.8129 10.7595C10.8639 10.8074 10.9659 10.8807 10.9914 10.9094ZM11.2943 11.0369L11.1955 13.1664L10.9946 13.329L11.0935 10.9604C11.1445 10.9827 11.2433 11.0369 11.2943 11.0369ZM11.5748 11.0369L11.5015 12.8125L11.2943 13.0134L11.374 11.0592C11.4218 11.0592 11.5525 11.0592 11.5748 11.0369Z" fill="#C09300"/>
<path d="M14.0104 10.4248L14.1634 14.0048L14.4185 14.2344L14.2622 10.5523C14.1869 10.4946 14.1015 10.4513 14.0104 10.4248ZM13.7044 10.6798L13.8319 13.6765L14.0869 13.9379L13.9339 10.479C13.8829 10.53 13.7331 10.6543 13.7044 10.6798ZM13.427 10.9094L13.5258 13.4087L13.7331 13.6095L13.6055 10.7595C13.5545 10.8074 13.4525 10.8807 13.427 10.9094ZM13.1242 11.0369L13.223 13.1664L13.4238 13.329L13.325 10.9604C13.274 10.9827 13.1752 11.0369 13.1242 11.0369ZM12.8436 11.0369L12.917 12.8125L13.1242 13.0134L13.0445 11.0592C12.9967 11.0592 12.8659 11.0592 12.8436 11.0369Z" fill="#C09300"/>
<path d="M12.3113 12.6084L12.6174 14.0047L12.5154 14.1067L12.4102 14.027L12.238 12.7837L12.3113 14.027L12.2093 14.1545L12.1105 14.027L12.1838 12.7837L12.0085 14.027L11.9033 14.1067L11.8013 14.0047L12.1073 12.6116H12.3113V12.6084Z" fill="#C09300" stroke="#C09300" stroke-width="0.0350669"/>
<path d="M11.5239 11.9971L10.915 14.1553L11.7535 14.2828L12.1073 12.6602L11.5239 11.9971Z" fill="white" stroke="#C09300" stroke-width="0.0382548" stroke-linejoin="round"/>
<path d="M11.323 12.737L11.3963 12.9123L11.7916 12.5361" stroke="#C09300" stroke-width="0.0414427" stroke-linejoin="round"/>
<path d="M11.5973 12.29L11.6801 13.0647L11.932 12.7332M11.83 12.8607L11.9671 13.3389M12.0212 13.1635L11.7439 13.5843M11.83 14.0051L11.7407 13.5843M11.7407 13.5843L11.6642 13.1571L11.4761 13.409L11.3964 13.1189L11.135 13.3867L11.2657 13.8712L11.4506 13.5716L11.5494 13.8776L11.7407 13.5843Z" stroke="#C09300" stroke-width="0.0414427" stroke-linejoin="round"/>
<path d="M11.0935 14.1073L11.2625 13.8682L11.3709 14.2348L11.5239 13.9797L11.6227 14.2858" stroke="#C09300" stroke-width="0.0414427" stroke-linejoin="round"/>
<path d="M12.8945 11.9971L13.5034 14.1553L12.665 14.2828L12.3111 12.6602L12.8945 11.9971Z" fill="white" stroke="#C09300" stroke-width="0.0382548" stroke-linejoin="round"/>
<path d="M13.0955 12.737L13.0221 12.9123L12.6268 12.5361" stroke="#C09300" stroke-width="0.0414427" stroke-linejoin="round"/>
<path d="M12.8212 12.29L12.7383 13.0647L12.4865 12.7332M12.5885 12.8607L12.4514 13.3389M12.3972 13.1635L12.6746 13.5843M12.5885 14.0051L12.6777 13.5843M12.6777 13.5843L12.7543 13.1571L12.9423 13.409L13.022 13.1189L13.2834 13.3867L13.1527 13.8712L12.9678 13.5716L12.869 13.8776L12.6777 13.5843Z" stroke="#C09300" stroke-width="0.0414427" stroke-linejoin="round"/>
<path d="M13.325 14.1073L13.156 13.8682L13.0476 14.2348L12.8946 13.9797L12.7958 14.2858" stroke="#C09300" stroke-width="0.0414427" stroke-linejoin="round"/>
<path d="M12.209 15.1212C12.8465 15.1212 13.4522 15.0702 13.8093 14.9714C13.9591 14.9427 13.9591 14.8662 13.9591 14.7641C14.1121 14.7131 14.0356 14.5346 14.1408 14.5346C14.0324 14.5665 14.0133 14.3593 13.8858 14.3848C13.8858 14.2063 13.7041 14.184 13.5543 14.235C13.2514 14.3338 12.7158 14.3593 12.209 14.3593C11.6989 14.3338 11.1697 14.3338 10.8637 14.2318C10.7138 14.184 10.5353 14.2063 10.5353 14.3848C10.4078 14.3593 10.3855 14.5633 10.2803 14.5346C10.3855 14.5346 10.3058 14.7163 10.4588 14.7641C10.4588 14.8662 10.4588 14.9427 10.6118 14.9714C10.9625 15.0702 11.5746 15.1212 12.209 15.1212Z" fill="white" stroke="#C09300" stroke-width="0.0765097" stroke-linecap="round" stroke-linejoin="round"/>
<path d="M11.3449 14.1556C11.5489 14.1843 11.7785 14.2066 11.957 14.1843C12.059 14.1843 12.1323 14.3596 11.9283 14.3851C11.753 14.4074 11.4724 14.3851 11.3226 14.3596C11.1254 14.3251 10.9297 14.2826 10.736 14.2321C10.5575 14.1556 10.685 14.0089 10.787 14.0281C10.969 14.0864 11.1557 14.129 11.3449 14.1556ZM13.0728 14.1556C12.8687 14.1843 12.6392 14.2066 12.4671 14.1843C12.3587 14.1843 12.2853 14.3596 12.4894 14.3851C12.6679 14.4074 12.9452 14.3851 13.0951 14.3596C13.2226 14.3341 13.5031 14.2863 13.6816 14.2321C13.8602 14.1556 13.7326 14.0089 13.6306 14.0281C13.4487 14.0864 13.262 14.1291 13.0728 14.1556Z" fill="white" stroke="#C09300" stroke-width="0.0414427" stroke-linecap="round" stroke-linejoin="round"/>
<path d="M10.7107 14.0568C10.5577 14.0281 10.4875 14.2066 10.5354 14.3086C10.5577 14.2576 10.6629 14.2576 10.6852 14.2066C10.7139 14.1301 10.6629 14.1301 10.7139 14.0568H10.7107ZM11.3228 14.5254C11.3228 14.4234 11.4216 14.4362 11.4216 14.3341C11.4216 14.2863 11.3961 14.2066 11.3451 14.2066C11.3185 14.2081 11.2934 14.2194 11.2746 14.2382C11.2558 14.257 11.2446 14.2821 11.2431 14.3086C11.2208 14.4075 11.3228 14.4234 11.3228 14.5254ZM12.0464 14.2353C12.1963 14.2353 12.1803 14.4362 12.1102 14.5382C12.1102 14.4648 11.9827 14.4362 11.9827 14.3851C11.9827 14.3086 12.0974 14.3086 12.0464 14.2353ZM13.7041 14.0568C13.8603 14.0281 13.9337 14.2066 13.8827 14.3086C13.8603 14.2576 13.7551 14.2576 13.7328 14.2066C13.7041 14.1301 13.7551 14.1301 13.7041 14.0568ZM13.1016 14.5222C13.1016 14.4202 12.9996 14.433 12.9996 14.331C12.9996 14.2831 13.0251 14.2034 13.0761 14.2034C13.1027 14.205 13.1277 14.2162 13.1466 14.235C13.1654 14.2538 13.1766 14.2789 13.1781 14.3054C13.2004 14.4043 13.0984 14.4202 13.0984 14.5222H13.1016ZM12.3684 14.2353C12.2186 14.2353 12.2345 14.4362 12.3046 14.5382C12.3046 14.4648 12.4322 14.4362 12.4322 14.3851C12.4322 14.3086 12.3174 14.3086 12.3684 14.2353Z" fill="white" stroke="#C09300" stroke-width="0.0414427" stroke-linecap="round" stroke-linejoin="round"/>
<path d="M10.7646 14.1074C10.8157 14.1074 10.8922 14.1297 10.9145 14.1584L10.7646 14.1074ZM11.0165 14.1839C11.042 14.1839 11.144 14.2062 11.1918 14.2349L11.0165 14.1839ZM11.9282 14.2859C11.8804 14.2859 11.7784 14.2859 11.7529 14.3083L11.9282 14.2828V14.2859ZM11.6509 14.2859C11.6222 14.2573 11.5234 14.2573 11.4724 14.2859H11.6509ZM13.6529 14.1074C13.5988 14.1081 13.5463 14.126 13.5031 14.1584L13.6529 14.1074ZM13.4042 14.1839C13.3724 14.1839 13.2767 14.2062 13.2257 14.2349L13.4042 14.1839ZM12.4893 14.2859C12.5371 14.2859 12.6391 14.2859 12.6678 14.3083L12.4893 14.2828V14.2859ZM12.7667 14.2859C12.7953 14.2573 12.8942 14.2573 12.9452 14.2859H12.7667Z" fill="white" stroke="#C09300" stroke-width="0.0286911" stroke-linecap="round" stroke-linejoin="round"/>
<path d="M10.7203 14.5095C10.7044 14.5063 10.6948 14.4904 10.7012 14.4776C10.7044 14.4553 10.7203 14.4458 10.7331 14.4521C10.7458 14.4521 10.7618 14.4713 10.7618 14.4776L10.749 14.5L10.7427 14.5031C10.7427 14.5095 10.7299 14.5095 10.7203 14.5095ZM12.4737 14.6338C12.4673 14.6338 12.4546 14.6179 12.4546 14.6115C12.4546 14.5988 12.4737 14.5797 12.4864 14.5797L12.5119 14.5924C12.5215 14.602 12.5215 14.6211 12.5088 14.6307C12.5024 14.637 12.4833 14.637 12.4737 14.6307V14.6338ZM12.4833 14.7135C12.4705 14.7072 12.4673 14.7008 12.4641 14.688C12.4641 14.6721 12.4641 14.6689 12.4801 14.6593L12.4928 14.653L12.5056 14.6593C12.5183 14.6657 12.5279 14.6721 12.5279 14.6849C12.5279 14.6944 12.5183 14.704 12.5056 14.7104C12.496 14.7167 12.4928 14.7167 12.4833 14.7104V14.7135Z" fill="#C09300"/>
<path d="M10.8637 14.3633C10.851 14.3633 10.835 14.376 10.8255 14.3824C10.8063 14.3856 10.7808 14.3983 10.7617 14.3824C10.7426 14.3792 10.7171 14.3824 10.7139 14.4079C10.7171 14.4302 10.7458 14.4398 10.7649 14.427C10.7776 14.4111 10.8127 14.3983 10.8191 14.427C10.8032 14.4525 10.8063 14.4812 10.7936 14.5035C10.7936 14.5195 10.784 14.5322 10.7776 14.545C10.7617 14.545 10.7458 14.545 10.733 14.5546C10.7231 14.5546 10.7134 14.5569 10.7045 14.5613C10.6957 14.5657 10.688 14.5721 10.682 14.5801C10.6693 14.5992 10.6565 14.6183 10.6533 14.6438C10.6565 14.6629 10.6852 14.6693 10.7043 14.6725L10.7681 14.6916L10.8701 14.7203C10.9211 14.7363 10.9721 14.7426 11.0231 14.7554L11.0391 14.7586C11.0614 14.765 11.0709 14.7426 11.0709 14.7267L11.1028 14.6119C11.1092 14.596 11.1188 14.5641 11.0901 14.5705C11.0741 14.5801 11.0582 14.596 11.0391 14.596C11.0104 14.596 11.0263 14.6279 11.0391 14.6374C11.0391 14.6566 11.0327 14.6789 11.0231 14.6948C11.004 14.7044 10.9849 14.6948 10.9657 14.6884C10.9498 14.6884 10.9115 14.6789 10.9275 14.6566L10.9434 14.5992C10.953 14.5801 10.953 14.5577 10.9594 14.5354C10.9466 14.5131 10.9275 14.545 10.9115 14.5482C10.8988 14.5546 10.8605 14.5577 10.8797 14.5801C10.8988 14.5928 10.886 14.6151 10.8797 14.6343C10.8797 14.6566 10.8542 14.6661 10.835 14.6566C10.8159 14.6566 10.7872 14.6406 10.8032 14.6215L10.8191 14.5641L10.8414 14.5004C10.8414 14.478 10.851 14.4621 10.8605 14.443C10.8605 14.4207 10.8765 14.4015 10.8765 14.3792C10.8765 14.3697 10.8701 14.3665 10.8637 14.3665V14.3633ZM10.7458 14.596C10.7472 14.5952 10.7489 14.5947 10.7506 14.5947C10.7522 14.5947 10.7539 14.5952 10.7553 14.596C10.7617 14.6024 10.7617 14.6087 10.7553 14.6151L10.7458 14.6215C10.7298 14.6215 10.7266 14.6183 10.7266 14.6119C10.7266 14.6087 10.7266 14.6056 10.7362 14.6024C10.7401 14.5996 10.7444 14.5974 10.749 14.596H10.7458ZM10.7139 14.7554C10.698 14.7426 10.7011 14.7331 10.7235 14.714C10.7362 14.7076 10.7394 14.7076 10.7521 14.7171C10.7713 14.7331 10.7713 14.7426 10.7521 14.7586C10.7458 14.765 10.7426 14.765 10.7362 14.765C10.7266 14.765 10.7235 14.765 10.7139 14.7586V14.7554ZM10.8095 14.7873C10.8024 14.7851 10.7964 14.7802 10.7929 14.7736C10.7893 14.7671 10.7884 14.7594 10.7904 14.7522C10.7968 14.7395 10.8 14.7363 10.8191 14.7363C10.8414 14.7363 10.8446 14.7395 10.8478 14.7586C10.8478 14.7713 10.8478 14.7745 10.8382 14.7809C10.8347 14.7837 10.8306 14.7857 10.8262 14.7868C10.8218 14.7879 10.8172 14.7881 10.8127 14.7873H10.8095ZM13.6531 14.7873C13.6468 14.7841 13.6436 14.7809 13.6436 14.7713C13.6436 14.7586 13.6499 14.749 13.6691 14.7426C13.6882 14.7331 13.701 14.7331 13.7073 14.749C13.7169 14.7681 13.7169 14.7745 13.7041 14.7873C13.6978 14.7968 13.6946 14.7968 13.6786 14.7968C13.6627 14.7968 13.6595 14.7968 13.6531 14.7905V14.7873ZM10.9434 14.8255C10.9307 14.8255 10.9243 14.8128 10.9243 14.8C10.9243 14.7905 10.9243 14.7873 10.9307 14.7809L10.9498 14.7745L10.9689 14.7777C10.9849 14.7905 10.988 14.8032 10.9785 14.816C10.9689 14.8287 10.9594 14.8287 10.9402 14.8255H10.9434ZM11.6384 14.8574L11.632 14.8478C11.632 14.8287 11.632 14.8128 11.6384 14.7936C11.6416 14.7777 11.6384 14.7618 11.6448 14.7458L11.6575 14.6566C11.6575 14.6406 11.6575 14.6247 11.6639 14.6119C11.6671 14.5864 11.6639 14.5641 11.6703 14.5418C11.6703 14.5322 11.6798 14.5099 11.6894 14.5227C11.7021 14.5418 11.7181 14.5546 11.734 14.5705C11.7468 14.5801 11.734 14.5928 11.7245 14.596C11.7117 14.5992 11.7085 14.6151 11.7085 14.6279L11.7021 14.6661C11.7021 14.6884 11.7021 14.7076 11.6958 14.7299L11.6926 14.7873L11.6862 14.8255C11.6862 14.8383 11.6862 14.8542 11.6734 14.8606C11.6639 14.867 11.6479 14.867 11.6416 14.8574H11.6384ZM12.5852 14.545L12.5437 14.5832C12.5246 14.5992 12.5597 14.6056 12.5629 14.6183C12.5693 14.6374 12.5692 14.6566 12.5692 14.6757C12.5756 14.6948 12.5788 14.7108 12.5756 14.7299C12.5756 14.7522 12.5501 14.7458 12.5374 14.7586C12.5214 14.765 12.5151 14.7809 12.5055 14.7905C12.4979 14.8065 12.4936 14.8238 12.4927 14.8415C12.4927 14.8574 12.4832 14.8733 12.4927 14.8861L12.4959 14.8925H12.5119L12.5597 14.8893C12.5979 14.8829 12.6394 14.8829 12.6776 14.8797L12.7478 14.8733C12.7669 14.8765 12.7765 14.8574 12.7765 14.8415C12.7637 14.8192 12.7733 14.7968 12.7637 14.7777C12.7573 14.7522 12.7605 14.7299 12.7573 14.7076C12.7573 14.6884 12.735 14.6821 12.7255 14.6948C12.7127 14.7076 12.6936 14.7108 12.6872 14.7235C12.6776 14.7426 12.7063 14.7426 12.7127 14.7554L12.7159 14.8032C12.7191 14.8223 12.7 14.8223 12.684 14.8255C12.6681 14.8319 12.6458 14.8351 12.6362 14.816C12.6298 14.8 12.6298 14.7841 12.6298 14.7681C12.6298 14.7363 12.6203 14.7108 12.6203 14.6821C12.6203 14.6502 12.6107 14.6151 12.6107 14.5801C12.6107 14.5641 12.6075 14.5418 12.5852 14.545ZM12.5661 14.8064H12.5756V14.8319L12.5661 14.8351C12.5619 14.8364 12.5576 14.8375 12.5533 14.8383C12.5512 14.8383 12.5491 14.8383 12.5469 14.8383C12.5406 14.8319 12.5406 14.8223 12.5501 14.8128L12.5661 14.8064ZM11.6097 14.5131C11.6001 14.5131 11.5842 14.5354 11.5714 14.5322C11.5427 14.5354 11.5459 14.5641 11.5682 14.5737V14.5992C11.5714 14.6247 11.5555 14.647 11.5587 14.6725C11.5587 14.698 11.5491 14.7267 11.5491 14.7554C11.5396 14.7841 11.5396 14.8128 11.5364 14.8415C11.5332 14.867 11.5141 14.8574 11.4981 14.851V14.8192C11.5013 14.7905 11.4822 14.7841 11.4599 14.7809C11.4375 14.7809 11.428 14.765 11.4344 14.7458C11.4439 14.7331 11.4662 14.7363 11.4822 14.7363C11.5141 14.7426 11.5109 14.7012 11.4949 14.6853C11.4822 14.6661 11.4567 14.6534 11.4503 14.6343C11.4503 14.6087 11.4344 14.5801 11.412 14.5673C11.377 14.5641 11.3483 14.5928 11.3387 14.6247C11.3228 14.6247 11.3068 14.6311 11.2941 14.6374C11.2718 14.6438 11.2399 14.6821 11.2718 14.698C11.2877 14.7012 11.3419 14.714 11.3164 14.7363C11.3037 14.7618 11.2781 14.7618 11.2558 14.7554C11.2335 14.7554 11.208 14.7426 11.208 14.7171C11.2048 14.6916 11.2048 14.6661 11.1953 14.6438C11.1889 14.6183 11.1602 14.6247 11.157 14.6502C11.1347 14.6661 11.1379 14.6948 11.1538 14.714C11.1634 14.7363 11.1538 14.765 11.1443 14.7841C11.1379 14.816 11.106 14.816 11.0837 14.8223C11.0741 14.8287 11.0327 14.8223 11.0486 14.8447C11.0725 14.8557 11.0993 14.859 11.1251 14.8542C11.1506 14.8542 11.1729 14.8319 11.1889 14.8096C11.2048 14.7936 11.2335 14.8032 11.259 14.8032C11.2813 14.8032 11.3068 14.8192 11.3323 14.8064C11.3387 14.7905 11.3706 14.7586 11.3802 14.7905C11.3802 14.8192 11.4025 14.8319 11.428 14.8287C11.4567 14.8287 11.4439 14.8478 11.4439 14.867C11.4439 14.8957 11.4662 14.9116 11.4917 14.9244H11.5172C11.5396 14.9148 11.5651 14.9052 11.5746 14.8797C11.5842 14.8574 11.5842 14.8319 11.5906 14.8096C11.5969 14.7745 11.6033 14.7363 11.6033 14.7012C11.6129 14.6693 11.6097 14.6343 11.6161 14.5992L11.6256 14.5259C11.6256 14.5099 11.6193 14.5099 11.6097 14.5131ZM11.3961 14.6438C11.3993 14.6438 11.4025 14.6502 11.4025 14.6598C11.4025 14.6725 11.4089 14.6821 11.4184 14.6853V14.6948L11.3929 14.7012C11.377 14.7012 11.3642 14.6948 11.3547 14.6853L11.3483 14.6789L11.3578 14.6725L11.3738 14.6566C11.3833 14.647 11.3897 14.6438 11.3961 14.6438ZM13.5001 14.392C13.4818 14.3933 13.4636 14.3965 13.4459 14.4015C13.414 14.4015 13.3981 14.4334 13.43 14.4525C13.4491 14.5004 13.4778 14.4398 13.5097 14.4462C13.5543 14.4525 13.5575 14.5035 13.5671 14.5418C13.5671 14.5769 13.5798 14.6119 13.5894 14.647C13.6213 14.6821 13.5671 14.7044 13.5447 14.6789C13.5256 14.6566 13.481 14.6311 13.4587 14.6598C13.43 14.6725 13.4268 14.7108 13.4045 14.7235C13.3662 14.7331 13.363 14.6853 13.3407 14.6661C13.3216 14.6374 13.2865 14.6343 13.2578 14.6279C13.2451 14.5992 13.2515 14.5514 13.226 14.5322C13.2005 14.5418 13.1558 14.5864 13.1941 14.6088C13.226 14.6406 13.1781 14.6534 13.1622 14.6725C13.1367 14.7012 13.1303 14.7363 13.1303 14.7681C13.0889 14.7905 13.0825 14.7426 13.0761 14.714C13.0761 14.6789 13.0442 14.6884 13.0219 14.7012C12.9901 14.714 12.9773 14.7426 12.9582 14.765V14.8287C12.9646 14.8574 12.9964 14.8447 13.0156 14.8415C13.0474 14.8287 13.0602 14.8638 13.0347 14.8829C13.0156 14.902 12.9646 14.8925 12.9709 14.9275H13.0219C13.0538 14.918 13.0921 14.8925 13.0953 14.8542C13.1016 14.8223 13.1494 14.8255 13.175 14.8192C13.2068 14.8096 13.2483 14.8064 13.2578 14.851C13.2802 14.8733 13.328 14.8988 13.3535 14.867C13.3656 14.8593 13.3753 14.8483 13.3815 14.8354C13.3878 14.8224 13.3902 14.8079 13.3885 14.7936C13.3854 14.7681 13.43 14.7681 13.4427 14.7841C13.4587 14.8096 13.5097 14.8032 13.5352 14.7841C13.5607 14.7681 13.5671 14.7331 13.6053 14.7331L13.7775 14.6853C13.8221 14.6757 13.7711 14.647 13.7583 14.6279C13.7265 14.6119 13.6946 14.6821 13.6563 14.647C13.6244 14.6247 13.6276 14.5832 13.6181 14.5482C13.6085 14.5035 13.6117 14.4525 13.5798 14.4207C13.5607 14.3983 13.5288 14.392 13.5001 14.392ZM13.2833 14.6948C13.2865 14.6948 13.2929 14.6948 13.2993 14.7012C13.312 14.7076 13.3216 14.7203 13.3216 14.7331C13.3216 14.7395 13.3216 14.7395 13.312 14.7426L13.2961 14.749C13.2897 14.749 13.2738 14.7395 13.2738 14.7331V14.7203C13.2674 14.7076 13.2674 14.7076 13.2738 14.7012L13.2833 14.6948ZM13.4906 14.7076C13.5033 14.7076 13.5097 14.7076 13.5161 14.7171C13.5192 14.7299 13.5161 14.7363 13.5033 14.7426L13.4874 14.749L13.4746 14.7395C13.4682 14.7363 13.4651 14.7331 13.4651 14.7267C13.4651 14.7171 13.4778 14.7076 13.4906 14.7044V14.7076ZM13.2036 14.7076C13.21 14.7076 13.2132 14.7076 13.2164 14.714C13.2228 14.7203 13.226 14.7235 13.226 14.7331V14.7522C13.226 14.7618 13.226 14.7586 13.2068 14.7586C13.1877 14.7586 13.1845 14.7586 13.1845 14.7395C13.1845 14.7267 13.1845 14.7235 13.1941 14.7171C13.1973 14.7108 13.2036 14.7108 13.2068 14.7108L13.2036 14.7076ZM13.0315 14.7554C13.0345 14.7563 13.0372 14.7579 13.0395 14.7602C13.0417 14.7624 13.0433 14.7651 13.0442 14.7681C13.0442 14.7777 13.0442 14.7841 13.0379 14.7873C13.0283 14.7905 13.0124 14.7936 13.006 14.7873C13.0059 14.7862 13.0059 14.7851 13.006 14.7841C12.9996 14.7809 12.9996 14.7777 13.006 14.7745V14.7713L13.0124 14.7618C13.0143 14.7587 13.0173 14.7563 13.0208 14.7552C13.0243 14.754 13.0281 14.7541 13.0315 14.7554ZM13.3248 14.7936L13.3407 14.7968V14.816H13.3025L13.2993 14.8096C13.2993 14.8032 13.2993 14.8 13.3057 14.7968L13.3248 14.7936ZM12.7797 14.9467C12.7765 14.9467 12.7701 14.9435 12.7765 14.9403C12.7797 14.9307 12.7924 14.9275 12.802 14.9212C12.8193 14.9145 12.8347 14.9036 12.8466 14.8893C12.8466 14.8765 12.8593 14.8702 12.8593 14.8574L12.8562 14.8128C12.8519 14.7994 12.8428 14.788 12.8307 14.7809C12.8211 14.7777 12.8083 14.7745 12.8052 14.7618C12.8052 14.7522 12.8147 14.7426 12.8179 14.7331L12.837 14.6948C12.8466 14.6853 12.8593 14.6948 12.8625 14.7012L12.8785 14.7331C12.888 14.7426 12.8944 14.7522 12.8976 14.765C12.904 14.7777 12.9104 14.7873 12.9104 14.7968L12.9167 14.8383C12.9167 14.8542 12.9167 14.8733 12.9104 14.8893L12.8912 14.9148C12.8817 14.9244 12.8721 14.9339 12.8593 14.9371C12.8498 14.9403 12.8434 14.9499 12.8307 14.9499H12.7828L12.7797 14.9467ZM12.5597 14.9594C12.5533 14.953 12.5501 14.9499 12.5501 14.9403C12.5501 14.9307 12.5501 14.9307 12.5597 14.9212C12.5724 14.9084 12.5788 14.9084 12.6043 14.9212C12.6266 14.9339 12.6362 14.9339 12.6362 14.9244C12.6394 14.918 12.6521 14.9084 12.6681 14.9084C12.674 14.9086 12.6796 14.9109 12.684 14.9148C12.6904 14.9212 12.6936 14.9244 12.6936 14.9371C12.6936 14.953 12.6936 14.953 12.684 14.9626C12.6745 14.969 12.6745 14.969 12.6617 14.969C12.656 14.9687 12.6506 14.9667 12.646 14.9633C12.6415 14.9599 12.6381 14.9552 12.6362 14.9499C12.6362 14.9435 12.6362 14.9403 12.6298 14.9467L12.6234 14.9499C12.6171 14.9499 12.6043 14.9594 12.5979 14.9658L12.582 14.969C12.5693 14.969 12.5693 14.969 12.5597 14.9594ZM11.9285 14.6757C11.9062 14.6757 11.8839 14.6948 11.8807 14.7171C11.887 14.7395 11.9062 14.765 11.8934 14.7873C11.903 14.8192 11.8679 14.8319 11.8456 14.816C11.8328 14.7841 11.8265 14.7522 11.8042 14.7203C11.7786 14.714 11.7691 14.7554 11.75 14.7713C11.7595 14.7936 11.785 14.816 11.7882 14.8447C11.7946 14.8765 11.7755 14.9084 11.7531 14.9212C11.7308 14.9435 11.699 14.9371 11.6734 14.9403C11.6416 14.9594 11.6958 14.9658 11.7117 14.9658C11.7436 14.969 11.7786 14.9658 11.8073 14.9403C11.8297 14.9307 11.8265 14.8861 11.8552 14.8829L12.0082 14.8925C12.0337 14.8988 12.0751 14.8893 12.0943 14.9084C12.0943 14.9403 12.1261 14.9658 12.1548 14.9785C12.1708 14.9849 12.1867 14.9626 12.2026 14.9594C12.2345 14.9499 12.225 14.9116 12.2441 14.8957H12.4035C12.4099 14.8957 12.413 14.8797 12.4226 14.8733L12.4162 14.8128C12.4067 14.7873 12.4162 14.7554 12.4003 14.7331C12.3716 14.7267 12.3493 14.749 12.3238 14.7522C12.2919 14.765 12.2696 14.7936 12.2664 14.8255C12.2505 14.8542 12.2218 14.8192 12.2345 14.7936L12.2313 14.7618C12.2154 14.7458 12.1867 14.7522 12.1644 14.749L12.0687 14.7426C12.0369 14.7426 12.0082 14.7458 11.9827 14.7395C11.9508 14.7395 11.9508 14.7076 11.9508 14.6821C11.9444 14.6772 11.9365 14.6749 11.9285 14.6757ZM11.9922 14.7936L12.0241 14.7968H12.0656C12.0974 14.8032 12.1293 14.8032 12.1612 14.8032C12.1676 14.8032 12.174 14.8096 12.1803 14.816V14.8797C12.1803 14.8893 12.1803 14.902 12.1739 14.9052C12.1723 14.9078 12.1701 14.9099 12.1676 14.9116C12.1629 14.9108 12.1585 14.9089 12.1546 14.9062C12.1508 14.9034 12.1476 14.8998 12.1453 14.8957V14.851C12.1389 14.8457 12.1312 14.8424 12.1229 14.8415L12.0401 14.8383L11.9763 14.8351C11.9667 14.8319 11.954 14.8351 11.9476 14.8223C11.9412 14.816 11.9508 14.8032 11.9604 14.8C11.9704 14.7955 11.9813 14.7934 11.9922 14.7936ZM12.3525 14.8032C12.3557 14.8032 12.3588 14.8032 12.3588 14.8128L12.3652 14.8287C12.3652 14.8319 12.3652 14.8351 12.3588 14.8351C12.3429 14.8415 12.327 14.8415 12.3206 14.8351C12.3206 14.8319 12.3206 14.8192 12.327 14.816L12.3525 14.8032Z" fill="#C09300"/>
<path d="M12.2092 12.9975C13.2484 12.2005 13.1592 11.0273 13.1592 11.0273L13.0795 11.0337C12.8595 11.0337 12.3399 10.9062 12.2187 10.75C12.0912 10.8935 11.5557 11.0369 11.3389 11.0369L11.2592 11.0273C11.2592 11.0273 11.1667 12.1973 12.2092 12.9975Z" fill="white" stroke="#C09300" stroke-width="0.0350669"/>
<path d="M13.0763 11.1102H13.0508C12.8531 11.1102 12.3941 11.0114 12.2155 10.8584C12.0306 10.9987 11.562 11.1134 11.3675 11.1134C11.359 11.1131 11.3504 11.112 11.342 11.1102C11.3437 11.3117 11.3716 11.5121 11.4249 11.7064C11.5528 12.1745 11.8277 12.5891 12.2092 12.8891C12.5908 12.588 12.8657 12.1723 12.9934 11.7032C13.0464 11.5099 13.0743 11.3106 13.0763 11.1102Z" fill="white" stroke="#C09300" stroke-width="0.0286911"/>
<path d="M11.8712 11.0149C11.7 11.0707 11.522 11.1028 11.342 11.1105L11.3452 11.2412C11.3561 11.3976 11.3828 11.5525 11.4249 11.7035C11.5106 12.017 11.6628 12.3084 11.8712 12.5579V11.0149ZM12.5279 11.0149V12.5834C12.7464 12.3282 12.9053 12.0276 12.9934 11.7035C13.0354 11.5525 13.0621 11.3976 13.0731 11.2412L13.0763 11.1137H13.0508C12.9296 11.1137 12.7192 11.0755 12.5279 11.0117V11.0149Z" fill="#C09300"/>
<path d="M12.6015 10.6323C12.6238 10.6355 12.5728 10.5207 12.5728 10.5207C12.6301 10.5781 12.8405 10.594 12.8405 10.594C12.713 10.5366 12.5855 10.1127 12.6015 9.77155C12.6142 9.43363 12.5536 9.29974 12.5058 9.24873C12.4421 9.18497 12.2348 9.12759 12.101 9.12122C12.0213 9.11803 12.0372 9.1786 12.0372 9.1786C11.8937 9.14353 11.7503 9.12759 11.6865 9.17222C11.6291 9.21048 11.6164 9.41131 11.661 9.37625C11.7662 9.29017 11.8587 9.36987 11.9224 9.46232C11.9798 9.54202 11.9766 9.77155 11.8937 10.0425C11.8203 10.2474 11.7125 10.4382 11.575 10.6068C11.7025 10.6068 11.881 10.4952 11.881 10.4952L11.8395 10.6705C11.9734 10.6068 12.0786 10.508 12.0786 10.508L12.2062 10.6418C12.2476 10.5845 12.3337 10.508 12.3337 10.508C12.3337 10.508 12.4389 10.6195 12.6015 10.6355V10.6323Z" fill="white" stroke="#C09300" stroke-width="0.0382548"/>
<path d="M12.0849 9.82258C12.0849 9.82258 12.0148 10.3454 11.8809 10.492M12.1996 9.80664C12.1996 9.80664 12.1678 10.339 12.0785 10.508M12.2985 9.82896C12.2985 9.82896 12.2985 10.4092 12.3304 10.508M12.426 9.85765C12.426 9.85765 12.4515 10.3454 12.5726 10.5207" stroke="#C09300" stroke-width="0.0414427"/>
<path d="M11.9542 9.5679C11.9513 9.53094 11.9404 9.49504 11.9223 9.4627C11.8585 9.36707 11.7661 9.29056 11.6609 9.37663C11.6609 9.37663 11.696 9.26505 11.7757 9.26187C11.833 9.25868 11.9701 9.3065 12.0913 9.51052C12.0913 9.51052 12.002 9.49139 11.9797 9.51052C11.9414 9.5424 11.9574 9.5679 11.9574 9.5679H11.9542Z" fill="#C09300" stroke="#C09300" stroke-width="0.00956371"/>
<path d="M11.6482 9.23917C11.6578 9.20729 11.6705 9.18179 11.6896 9.17222C11.7534 9.12759 11.8937 9.14034 12.0371 9.1786C12.0371 9.1786 12.0244 9.11803 12.1009 9.12122C12.2348 9.12759 12.4388 9.18497 12.5026 9.24873C12.523 9.27115 12.5392 9.29707 12.5504 9.32524C12.5185 9.28061 12.4292 9.2838 12.4069 9.28699C12.375 9.29017 12.3527 9.28699 12.3081 9.29974C12.2858 9.30611 12.2539 9.31249 12.2348 9.32524C12.222 9.33799 12.2093 9.37625 12.1901 9.37625C12.1583 9.37625 12.1583 9.36987 12.1487 9.36031C12.1391 9.34437 12.1328 9.32524 12.12 9.32843C12.0881 9.33162 12.0307 9.30611 11.9606 9.24873C11.8873 9.19135 11.8586 9.1786 11.7693 9.18497C11.6737 9.19135 11.6482 9.24554 11.6482 9.24554V9.23917Z" fill="#C09300" stroke="#C09300" stroke-width="0.00956371"/>
<path d="M12.1711 9.32163C12.1922 9.32163 12.2093 9.3045 12.2093 9.28337C12.2093 9.26224 12.1922 9.24512 12.1711 9.24512C12.1499 9.24512 12.1328 9.26224 12.1328 9.28337C12.1328 9.3045 12.1499 9.32163 12.1711 9.32163Z" fill="white"/>
</g>
<rect x="0.1" y="0.1" width="23.8" height="23.8" rx="7.9" stroke="#B8B8B8" stroke-width="0.2"/>
<defs>
<linearGradient id="paint0_linear_527_8437" x1="252" y1="0" x2="252" y2="360" gradientUnits="userSpaceOnUse">
<stop stop-color="white"/>
<stop offset="1" stop-color="#F0F0F0"/>
</linearGradient>
<linearGradient id="paint1_linear_527_8437" x1="252" y1="0" x2="252" y2="120" gradientUnits="userSpaceOnUse">
<stop stop-color="#E41D33"/>
<stop offset="1" stop-color="#CE1126"/>
</linearGradient>
<linearGradient id="paint2_linear_527_8437" x1="252" y1="16" x2="252" y2="136" gradientUnits="userSpaceOnUse">
<stop stop-color="#262626"/>
<stop offset="1" stop-color="#0D0D0D"/>
</linearGradient>
<linearGradient id="paint3_linear_527_8437" x1="252" y1="8" x2="252" y2="128" gradientUnits="userSpaceOnUse">
<stop stop-color="white"/>
<stop offset="1" stop-color="#F0F0F0"/>
</linearGradient>
<clipPath id="clip0_527_8437">
<rect width="24" height="24" rx="8" fill="white"/>
</clipPath>
</defs>
</svg>
