<svg width="24" height="24" viewBox="0 0 24 24" fill="none" xmlns="http://www.w3.org/2000/svg">
<mask id="mask0_3290_7436" style="mask-type:alpha" maskUnits="userSpaceOnUse" x="0" y="0" width="24" height="24">
<rect width="24" height="24" fill="#D9D9D9"/>
</mask>
<g mask="url(#mask0_3290_7436)">
<path fill-rule="evenodd" clip-rule="evenodd" d="M14.3916 14.4953C14.209 14.6779 13.9952 14.7693 13.7504 14.7693C13.5055 14.7693 13.2918 14.6779 13.1091 14.4953C12.9263 14.3126 12.8349 14.0988 12.8349 13.8538C12.8349 13.6089 12.9263 13.3952 13.1091 13.2125C13.2918 13.0298 13.5055 12.9385 13.7504 12.9385C13.9952 12.9385 14.209 13.0298 14.3916 13.2125C14.5743 13.3952 14.6656 13.6089 14.6656 13.8538C14.6656 14.0988 14.5743 14.3126 14.3916 14.4953ZM14.1619 11.6C14.0389 11.7077 13.9017 11.7615 13.7504 11.7615C13.5785 11.7615 13.4362 11.7009 13.3234 11.5798C13.2105 11.4586 13.1625 11.3205 13.1791 11.1655C13.2125 10.7577 13.299 10.4333 13.4389 10.1923C13.5785 9.95125 13.8645 9.64483 14.2966 9.273C14.6491 8.95 14.8969 8.67792 15.0399 8.45675C15.1827 8.23558 15.2541 7.99875 15.2541 7.74625C15.2541 7.33075 15.1131 6.99608 14.8311 6.74225C14.5491 6.48842 14.1889 6.3615 13.7504 6.3615C13.4684 6.3615 13.2177 6.42208 12.9984 6.54325C12.7792 6.66442 12.5882 6.84617 12.4254 7.0885C12.3344 7.22317 12.2158 7.31575 12.0696 7.36625C11.9235 7.41692 11.778 7.41025 11.6331 7.34625C11.478 7.28208 11.3683 7.176 11.3041 7.028C11.2401 6.87983 11.2485 6.73842 11.3291 6.60375C11.583 6.16275 11.9221 5.82367 12.3466 5.5865C12.771 5.34933 13.2389 5.23075 13.7504 5.23075C14.5427 5.23075 15.1901 5.46183 15.6926 5.924C16.1951 6.38617 16.4464 6.97308 16.4464 7.68475C16.4464 8.08858 16.363 8.443 16.1964 8.748C16.0297 9.05317 15.7156 9.42692 15.2541 9.86925C14.9388 10.1718 14.7237 10.4096 14.6089 10.5828C14.4942 10.7558 14.4202 10.9583 14.3869 11.1905C14.3599 11.3558 14.2849 11.4923 14.1619 11.6ZM6.77537 16.975C7.12537 17.325 7.55295 17.5 8.05812 17.5H19.4426C19.9478 17.5 20.3754 17.325 20.7254 16.975C21.0754 16.625 21.2504 16.1974 21.2504 15.6923V4.30775C21.2504 3.80258 21.0754 3.375 20.7254 3.025C20.3754 2.675 19.9478 2.5 19.4426 2.5H8.05812C7.55295 2.5 7.12537 2.675 6.77537 3.025C6.42537 3.375 6.25037 3.80258 6.25037 4.30775V15.6923C6.25037 16.1974 6.42537 16.625 6.77537 16.975ZM19.4426 16H8.05812C7.98112 16 7.91062 15.9679 7.84662 15.9038C7.78245 15.8398 7.75037 15.7693 7.75037 15.6923V4.30775C7.75037 4.23075 7.78245 4.16025 7.84662 4.09625C7.91062 4.03208 7.98112 4 8.05812 4H19.4426C19.5196 4 19.5901 4.03208 19.6541 4.09625C19.7183 4.16025 19.7504 4.23075 19.7504 4.30775V15.6923C19.7504 15.7693 19.7183 15.8398 19.6541 15.9038C19.5901 15.9679 19.5196 16 19.4426 16ZM3.27537 20.475C3.62537 20.825 4.05295 21 4.55812 21H16.6926C16.9055 21 17.0837 20.9282 17.2274 20.7845C17.3709 20.641 17.4426 20.4628 17.4426 20.25C17.4426 20.0372 17.3709 19.8589 17.2274 19.7153C17.0837 19.5718 16.9055 19.5 16.6926 19.5H4.55812C4.48112 19.5 4.41062 19.4679 4.34662 19.4038C4.28245 19.3398 4.25037 19.2693 4.25037 19.1923V16.3735C4.2345 16.2777 4.19328 16.1459 4.08792 16.0193C3.86669 15.7553 3.54715 15.7433 3.49798 15.7433C3.43653 15.7433 3.19073 15.7553 2.98179 15.9473C2.83141 16.0794 2.77303 16.2565 2.75037 16.374V19.1923C2.75037 19.6974 2.92537 20.125 3.27537 20.475ZM2.75037 12.0979V7.05775C2.75037 6.84492 2.8222 6.66667 2.96587 6.523C3.10937 6.3795 3.28753 6.30775 3.50037 6.30775C3.7132 6.30775 3.89145 6.3795 4.03512 6.523C4.17862 6.66667 4.25037 6.84492 4.25037 7.05775V12.1042C4.23074 12.2337 4.17106 12.4543 3.9896 12.5993C3.95273 12.6233 3.91586 12.6473 3.89128 12.6713C3.73368 12.7592 3.57608 12.7565 3.51292 12.7555C3.50712 12.7554 3.50212 12.7553 3.49798 12.7553C3.41195 12.7553 3.27676 12.7553 3.14157 12.6713C2.87747 12.529 2.78207 12.2484 2.75037 12.0979Z" fill="black"/>
</g>
</svg>
