<svg width="20" height="20" viewBox="0 0 20 20" fill="none" xmlns="http://www.w3.org/2000/svg">
<path d="M19.9267 16.6887L19.0458 11.722C19.4088 11.3943 19.6828 10.9801 19.8425 10.5179C20.0023 10.0557 20.0424 9.56058 19.9592 9.0787C19.876 8.59682 19.6722 8.14383 19.3668 7.76193C19.0614 7.38003 18.6643 7.08163 18.2125 6.89454C17.8797 4.98918 16.8944 3.25893 15.4257 2.0004C13.9569 0.741883 12.0961 0.0334772 10.1622 -0.00336948C8.22835 -0.0402162 6.3419 0.596791 4.82625 1.79845C3.31061 3.00011 2.26016 4.69157 1.855 6.58287L1.25 9.99954H2.5C3.9963 9.99033 5.47186 9.64876 6.82 8.99954C6.72131 9.17826 6.66861 9.37872 6.66667 9.58287C6.66554 9.82558 6.73509 10.0634 6.86684 10.2672C6.99859 10.4711 7.18683 10.6321 7.4086 10.7308C7.63036 10.8294 7.87604 10.8614 8.11566 10.8228C8.35528 10.7841 8.57847 10.6766 8.75798 10.5132C8.93749 10.3498 9.06556 10.1377 9.12655 9.90282C9.18754 9.66789 9.17882 9.42029 9.10145 9.19024C9.02408 8.96019 8.8814 8.75764 8.69084 8.60731C8.50028 8.45699 8.27008 8.36539 8.02834 8.34371C9.80631 7.23439 11.3121 5.73946 12.4342 3.96954C11.9435 3.69713 11.41 3.51002 10.8567 3.41621C9.575 5.31537 6.8475 7.96871 3.24417 8.29871L3.49001 6.90787C3.83023 5.36369 4.70825 3.99072 5.96727 3.0341C7.22628 2.07749 8.78433 1.59952 10.3632 1.68554C11.9421 1.77156 13.439 2.41598 14.5866 3.50372C15.7342 4.59146 16.4579 6.0517 16.6283 7.62371L16.6933 8.24537L17.3083 8.3562C17.612 8.41559 17.8828 8.58545 18.0684 8.83294C18.254 9.08043 18.3413 9.38796 18.3133 9.69606C18.2853 10.0042 18.144 10.2909 17.9169 10.5009C17.6897 10.7109 17.3927 10.8292 17.0833 10.8329C17.0117 10.8329 16.1775 10.687 16.1775 10.687L15.9425 11.3537C15.1783 13.5179 12.6083 15.8329 10 15.8329C7.61584 15.8329 5.26834 13.897 4.29834 11.9162L3.87334 14.3154C4.66578 15.2867 5.64766 16.0866 6.75917 16.6662H6.66667V18.3329H2.69834C2.54361 18.3323 2.39097 18.2971 2.25165 18.2298C2.11233 18.1625 1.98988 18.0648 1.8933 17.9439C1.79672 17.823 1.72847 17.682 1.69358 17.5313C1.65869 17.3805 1.65803 17.2239 1.69167 17.0729L2.65 11.6562C2.6 11.6562 2.55084 11.6654 2.5 11.6654H0.955838L0.0541713 16.762C-0.0257614 17.154 -0.0175422 17.5588 0.0782339 17.9472C0.17401 18.3356 0.354946 18.6979 0.607946 19.0078C0.860945 19.3176 1.17968 19.5674 1.54107 19.7389C1.90246 19.9104 2.29747 19.9995 2.6975 19.9995H8.33334V17.2779C9.4248 17.5734 10.5752 17.5734 11.6667 17.2779V19.9995H17.3017C17.7138 20.0008 18.1207 19.907 18.4906 19.7255C18.8606 19.544 19.1838 19.2796 19.435 18.9529C19.6835 18.6376 19.8569 18.2698 19.9421 17.8775C20.0273 17.4852 20.022 17.0787 19.9267 16.6887ZM18.1167 17.9329C18.0207 18.0577 17.8973 18.1587 17.7559 18.2281C17.6146 18.2975 17.4591 18.3333 17.3017 18.3329H13.3333V16.6279C15.0534 15.7031 16.4346 14.2549 17.2767 12.4929C17.3475 12.4887 17.4142 12.4687 17.4833 12.4595L18.2992 17.0429C18.3394 17.1953 18.3439 17.3549 18.3122 17.5093C18.2805 17.6636 18.2136 17.8086 18.1167 17.9329ZM12.0833 10.8329C11.8361 10.8329 11.5944 10.7596 11.3889 10.6222C11.1833 10.4849 11.0231 10.2896 10.9285 10.0612C10.8339 9.83282 10.8091 9.58148 10.8574 9.33901C10.9056 9.09653 11.0246 8.8738 11.1995 8.69899C11.3743 8.52417 11.597 8.40512 11.8395 8.35689C12.082 8.30866 12.3333 8.33341 12.5617 8.42802C12.7901 8.52263 12.9853 8.68285 13.1227 8.88841C13.26 9.09397 13.3333 9.33565 13.3333 9.58287C13.3333 9.91439 13.2016 10.2323 12.9672 10.4668C12.7328 10.7012 12.4149 10.8329 12.0833 10.8329Z" fill="#232176"/>
</svg>
