<svg width="18" height="16" viewBox="0 0 18 16" fill="none" xmlns="http://www.w3.org/2000/svg">
<path d="M11.856 3.82323H12.4294C12.6397 3.82323 12.8117 3.65119 12.8117 3.44091C12.8117 3.23064 12.6397 3.05859 12.4294 3.05859H11.856C11.6457 3.05859 11.4736 3.23064 11.4736 3.44091C11.4736 3.65119 11.6457 3.82323 11.856 3.82323Z" fill="#232176"/>
<path d="M17.5142 0.42055C17.3803 0.152927 17.1127 0 16.826 0H0.768637C0.481899 0 0.214276 0.172043 0.0804649 0.42055C-0.0533464 0.688172 -0.0151146 0.994026 0.156928 1.22342L6.90484 9.71087V15.2354C6.90484 15.5221 7.05776 15.7706 7.30627 15.9044C7.42097 15.9618 7.53566 16 7.66947 16C7.8224 16 7.97533 15.9618 8.10914 15.8662L10.231 14.3943C10.5369 14.1649 10.7089 13.8208 10.7089 13.4576V9.69176L17.4377 1.22342C17.6097 0.994026 17.648 0.688172 17.5142 0.42055ZM10.0207 9.32855C9.9825 9.3859 9.94426 9.46237 9.94426 9.55794V13.4385C9.94426 13.5723 9.88692 13.687 9.79134 13.7634L7.66947 15.2354V9.55794C7.66947 9.42413 7.61212 9.30944 7.51655 9.25209L3.19635 3.82318H10.1354C10.3457 3.82318 10.5177 3.65113 10.5177 3.44086C10.5177 3.23059 10.3457 3.05854 10.1354 3.05854H2.68023C2.66111 3.05854 2.62288 3.05854 2.60376 3.05854L0.768637 0.764635H16.826L10.0207 9.32855Z" fill="#232176"/>
</svg>
