<svg width="24" height="24" viewBox="0 0 24 24" fill="none" xmlns="http://www.w3.org/2000/svg">
<path d="M12.0003 20.432C11.7405 20.432 11.5295 20.2214 11.5295 19.9612V4.03812C11.5295 3.77833 11.7402 3.56738 12.0003 3.56738C12.2604 3.56738 12.471 3.778 12.471 4.03812V19.9612C12.471 20.221 12.2604 20.432 12.0003 20.432Z" fill="#0C3BB6"/>
<path d="M5.06551 6.69535C5.06551 6.43556 4.85489 6.22461 4.59476 6.22461C4.33464 6.22461 4.12402 6.43522 4.12402 6.69535V8.71228C4.12402 8.97207 4.33464 9.18302 4.59476 9.18302C4.85489 9.18302 5.06551 8.97241 5.06551 8.71228V6.69535Z" fill="#0C3BB6"/>
<path d="M7.61366 13.1318H8.69351C9.4817 13.1318 10.1227 12.4904 10.1227 11.7026V6.69535C10.1227 6.43556 9.91208 6.22461 9.65195 6.22461C9.39183 6.22461 9.18121 6.43522 9.18121 6.69535V11.7026C9.18121 11.9715 8.96246 12.1906 8.69318 12.1906H7.61332C7.35353 12.1906 7.14258 12.4012 7.14258 12.6614C7.14258 12.9215 7.35319 13.1321 7.61332 13.1321L7.61366 13.1318Z" fill="#0C3BB6"/>
<path d="M9.65213 16.8339C8.9294 16.8339 8.22905 16.6888 7.57042 16.4025C6.88602 16.1051 6.28267 15.6693 5.77767 15.108C5.60369 14.9147 5.30625 14.8991 5.11294 15.0731C4.91962 15.2471 4.90402 15.5445 5.07767 15.7378C5.67355 16.4002 6.38611 16.9143 7.19498 17.266C7.97266 17.6042 8.79951 17.7754 9.65213 17.7754C9.87733 17.7754 10.1005 17.7632 10.3216 17.7391V16.7915C10.1008 16.8197 9.87767 16.8339 9.65213 16.8339Z" fill="#0C3BB6"/>
<path d="M14.2993 7.98454C14.4702 7.84141 14.4929 7.58705 14.3498 7.41612C14.2067 7.24519 13.9523 7.22246 13.7814 7.36559C13.7692 7.37576 13.7573 7.38627 13.7451 7.39645V8.52514C13.913 8.33352 14.0982 8.15242 14.2989 7.9842L14.2993 7.98454Z" fill="#0C3BB6"/>
<path d="M14.7665 7.60069C14.8317 7.60069 14.8975 7.58509 14.9585 7.55185C15.3845 7.32089 15.8264 7.16658 16.2727 7.09366C16.4925 7.05771 16.6417 6.85015 16.6058 6.63038C16.5698 6.41061 16.3623 6.26139 16.1425 6.29734C15.607 6.38518 15.0792 6.56866 14.5739 6.84269C14.3782 6.94885 14.3053 7.19371 14.4118 7.38974C14.4851 7.52438 14.6234 7.60069 14.7669 7.60069H14.7665Z" fill="#0C3BB6"/>
<path d="M14.1486 8.67646C13.9974 8.84027 14.0075 9.09531 14.1713 9.24657C14.249 9.31813 14.347 9.35374 14.445 9.35374C14.5536 9.35374 14.6621 9.30999 14.7415 9.22419C15.4109 8.49942 16.4484 8.11449 17.3845 8.24336C17.6052 8.27355 17.8087 8.11957 17.8393 7.89879C17.8698 7.678 17.7155 7.47451 17.4947 7.44398C16.287 7.2778 15.005 7.75024 14.1493 8.6768L14.1486 8.67646Z" fill="#0C3BB6"/>
<path d="M13.8512 11.424C13.8346 10.9119 13.9661 10.391 14.232 9.91686C14.3409 9.72252 14.2717 9.47664 14.0774 9.36777C13.9719 9.30876 13.8512 9.30232 13.7454 9.33962V11.7093C13.8139 11.6343 13.8546 11.5336 13.8512 11.424Z" fill="#0C3BB6"/>
<path d="M16.6134 8.65745C16.0188 8.74902 15.4603 9.03832 15.04 9.47243C14.785 9.73595 14.5805 10.0524 14.4496 10.3868C14.3682 10.5943 14.4706 10.8284 14.6778 10.9098C14.7263 10.9287 14.7759 10.9376 14.825 10.9376C14.9861 10.9376 15.1384 10.8402 15.2008 10.6812C15.2934 10.4451 15.4382 10.2209 15.62 10.0334C15.9185 9.7251 16.3149 9.51957 16.7361 9.45479C17.2008 9.38323 17.697 9.48023 18.0982 9.72103C18.2891 9.83566 18.537 9.7736 18.6517 9.58265C18.7663 9.39171 18.7042 9.14379 18.5133 9.02916C17.9452 8.68831 17.2703 8.55604 16.6134 8.65711V8.65745Z" fill="#0C3BB6"/>
<path d="M18.6628 11.2968C18.6286 10.9011 18.4407 10.5202 18.1473 10.2516C17.7794 9.91447 17.2564 9.77474 16.749 9.87818C16.2369 9.9823 15.8062 10.3184 15.5969 10.7773C15.5047 10.9801 15.5939 11.2192 15.7967 11.3118C15.9995 11.4044 16.2386 11.3148 16.3312 11.112C16.4336 10.8875 16.65 10.7217 16.9101 10.6687C17.1696 10.6162 17.4219 10.6806 17.6027 10.8465C17.7488 10.9804 17.8424 11.17 17.8594 11.3667C17.8777 11.577 18.0537 11.7354 18.261 11.7354C18.2725 11.7354 18.2844 11.735 18.2962 11.734C18.5184 11.7147 18.6825 11.5193 18.6632 11.2972L18.6628 11.2968Z" fill="#0C3BB6"/>
<path d="M18.3286 14.9792C18.1584 14.8354 17.904 14.8564 17.7602 15.0267C16.9442 15.9912 15.8677 16.6604 14.7289 16.9107C14.5111 16.9585 14.3738 17.1735 14.4216 17.3913C14.463 17.5798 14.6298 17.708 14.8154 17.708C14.8442 17.708 14.873 17.705 14.9022 17.6985C16.213 17.4106 17.4468 16.6465 18.3764 15.5476C18.5202 15.3774 18.4992 15.123 18.329 14.9792H18.3286Z" fill="#0C3BB6"/>
<path d="M19.4469 12.2151C19.2278 12.1737 19.0172 12.3182 18.9758 12.5373C18.869 13.106 18.6353 13.6995 18.2816 14.3019C18.1686 14.4938 18.2327 14.7411 18.425 14.854C18.4891 14.8917 18.5597 14.9096 18.6292 14.9096C18.7676 14.9096 18.9022 14.8384 18.9775 14.7105C19.3787 14.0278 19.645 13.3468 19.7691 12.6862C19.8101 12.4671 19.666 12.2565 19.4469 12.2151Z" fill="#0C3BB6"/>
<path d="M19.3937 9.868C19.2737 9.68011 19.0244 9.62517 18.8365 9.74523C18.6486 9.86529 18.5937 10.1146 18.7137 10.3025C18.9572 10.6837 19.08 11.1079 19.0685 11.5295C19.0624 11.7523 19.2381 11.9378 19.4609 11.9436C19.4646 11.9436 19.4683 11.9436 19.4721 11.9436C19.6898 11.9436 19.8692 11.77 19.875 11.5512C19.8909 10.9679 19.7244 10.3859 19.3937 9.868Z" fill="#0C3BB6"/>
<path d="M15.6333 15.7805C15.7096 15.9032 15.8415 15.9707 15.9762 15.9707C16.0487 15.9707 16.1227 15.9511 16.1888 15.9097C16.6368 15.6312 17.0407 15.2894 17.3894 14.8943C17.7475 14.4883 18.0355 14.0396 18.2451 13.5601C18.3746 13.2633 18.4737 12.956 18.5384 12.6467C18.5842 12.4286 18.4448 12.2146 18.2268 12.1689C18.0087 12.1231 17.7947 12.2625 17.7489 12.4805C17.6953 12.7359 17.6132 12.9906 17.5057 13.2365C17.3297 13.6391 17.0869 14.0172 16.7844 14.3601C16.4876 14.6965 16.1437 14.9872 15.7625 15.2243C15.5732 15.342 15.5152 15.5906 15.6329 15.7798L15.6333 15.7805Z" fill="#0C3BB6"/>
<path d="M15.0681 16.4248C15.2821 16.3628 15.4053 16.1389 15.3432 15.9249C15.2811 15.7109 15.0573 15.5878 14.8433 15.6499C14.457 15.7618 14.0904 15.8306 13.7451 15.8574V16.6666C14.1643 16.6395 14.6062 16.5591 15.0678 16.4252L15.0681 16.4248Z" fill="#0C3BB6"/>
<path d="M15.844 14.6799C16.0258 14.5511 16.0689 14.2994 15.9403 14.1176C15.8115 13.9358 15.5598 13.8928 15.378 14.0213C14.8988 14.3605 14.3277 14.5748 13.7454 14.6375V15.4478C14.4928 15.3823 15.2298 15.1144 15.844 14.6799Z" fill="#0C3BB6"/>
<path d="M17.2284 12.7745C17.3651 12.3173 17.4251 11.8418 17.4624 11.4786C17.4852 11.2568 17.3237 11.0587 17.1023 11.0363C16.8808 11.0136 16.6827 11.175 16.66 11.3965C16.582 12.1582 16.445 12.9356 15.9726 13.4602C15.8233 13.6257 15.8369 13.8808 16.0024 14.03C16.0794 14.0995 16.176 14.1338 16.2724 14.1338C16.3826 14.1338 16.4925 14.0887 16.5722 14.0002C16.8649 13.6752 17.0795 13.2744 17.2288 12.7745H17.2284Z" fill="#0C3BB6"/>
<path d="M14.0002 14.1819C14.0318 14.1819 14.0636 14.1781 14.0955 14.1703C14.8983 13.9757 15.5966 13.4239 15.9636 12.6943C16.0863 12.4498 16.1728 12.187 16.22 11.9133C16.2579 11.6938 16.1104 11.4849 15.891 11.4473C15.6712 11.4096 15.4626 11.5568 15.425 11.7763C15.3914 11.9716 15.33 12.1588 15.2429 12.3321C14.981 12.8527 14.4811 13.2468 13.9056 13.3862C13.8449 13.4008 13.791 13.4289 13.7458 13.4659V14.0906C13.8167 14.1483 13.9063 14.1819 14.0006 14.1819H14.0002Z" fill="#0C3BB6"/>
<path d="M14.096 12.9093C14.679 12.6526 15.0558 12.0747 15.0558 11.4374C15.0558 11.2146 14.8751 11.0342 14.6522 11.0342C14.4294 11.0342 14.249 11.2149 14.249 11.4378C14.249 11.7505 14.0567 12.0452 13.7708 12.1714C13.7623 12.1751 13.7538 12.1781 13.7454 12.1812V13.0165C13.8651 12.9948 13.9828 12.9595 14.096 12.9097V12.9093Z" fill="#0C3BB6"/>
<path d="M0 8.09587V4.89666C0 2.19668 2.19668 0 4.89666 0H8.09587C8.41229 0 8.66869 0.256398 8.66869 0.572825C8.66869 0.889253 8.41229 1.14565 8.09587 1.14565H4.89666C2.82852 1.14565 1.14565 2.82818 1.14565 4.89666V8.09587C1.14565 8.41229 0.889253 8.66869 0.572825 8.66869C0.256398 8.66869 0 8.41229 0 8.09587Z" fill="#0C3BB6"/>
<path d="M15.3313 0.572825C15.3313 0.256398 15.5877 0 15.9041 0H19.1033C21.8033 0 24 2.19668 24 4.89666V8.09587C24 8.41229 23.7436 8.66869 23.4272 8.66869C23.1107 8.66869 22.8543 8.41229 22.8543 8.09587V4.89666C22.8543 2.82852 21.1718 1.14565 19.1033 1.14565H15.9041C15.5877 1.14565 15.3313 0.889253 15.3313 0.572825Z" fill="#0C3BB6"/>
<path d="M24 15.9039V19.1031C24 21.8031 21.8033 23.9997 19.1033 23.9997H15.9041C15.5877 23.9997 15.3313 23.7433 15.3313 23.4269C15.3313 23.1105 15.5877 22.8541 15.9041 22.8541H19.1033C21.1715 22.8541 22.8543 21.1716 22.8543 19.1031V15.9039C22.8543 15.5875 23.1107 15.3311 23.4272 15.3311C23.7436 15.3311 24 15.5875 24 15.9039Z" fill="#0C3BB6"/>
<path d="M8.66869 23.4269C8.66869 23.7433 8.41229 23.9997 8.09587 23.9997H4.89666C2.19668 23.9997 0 21.8031 0 19.1031V15.9039C0 15.5875 0.256398 15.3311 0.572825 15.3311C0.889253 15.3311 1.14565 15.5875 1.14565 15.9039V19.1031C1.14565 21.1712 2.82818 22.8541 4.89666 22.8541H8.09587C8.41229 22.8541 8.66869 23.1105 8.66869 23.4269Z" fill="#0C3BB6"/>
</svg>
