<svg width="42" height="42" viewBox="0 0 42 42" fill="none" xmlns="http://www.w3.org/2000/svg">
<rect width="42" height="42" rx="21" fill="#031752"/>
<path fill-rule="evenodd" clip-rule="evenodd" d="M28.375 31H14.625C13.9338 31 13.375 30.4412 13.375 29.7512V17.25C13.375 16.56 13.9338 16 14.625 16H16.5V17.25H15.25C14.905 17.25 14.625 17.5312 14.625 17.875V29.125C14.625 29.4713 14.905 29.7512 15.25 29.7512H27.75C28.0938 29.7512 28.375 29.4713 28.375 29.125V17.875C28.375 17.5312 28.0938 17.25 27.75 17.25H26.5V16H28.375C29.065 16 29.625 16.56 29.625 17.25V29.7512C29.625 30.4412 29.065 31 28.375 31ZM24.2075 15.1962L22.125 13.1136V25.375C22.125 25.72 21.8438 26 21.5 26C21.155 26 20.875 25.72 20.875 25.375V13.1136L18.7913 15.1962C18.5538 15.4349 18.1662 15.4349 17.9287 15.1962C17.6912 14.9599 17.6912 14.5712 17.9287 14.335L21.0163 11.2461C21.02 11.2411 21.0275 11.2388 21.0312 11.2338C21.045 11.2175 21.0401 11.1937 21.0551 11.1775C21.0788 11.155 21.1125 11.1625 21.1375 11.145C21.23 11.07 21.3374 11.0187 21.4637 11.0099C21.4737 11.0099 21.4826 11.0037 21.4913 11.0037C21.4951 11.0037 21.4975 11 21.5012 11C21.505 11 21.5075 11.0024 21.5113 11.0037C21.5188 11.0024 21.5238 11.0075 21.5313 11.0075C21.68 11.015 21.815 11.0737 21.9187 11.1662C21.9275 11.1749 21.9413 11.1712 21.9488 11.1787C21.9563 11.1887 21.9525 11.2025 21.9613 11.21C21.9663 11.215 21.965 11.2249 21.97 11.2312L25.0725 14.335C25.3113 14.5712 25.3113 14.9599 25.0725 15.1962C24.8325 15.4362 24.4463 15.4362 24.2075 15.1962Z" fill="#00EC42"/>
</svg>
