<svg width="42" height="42" viewBox="0 0 42 42" fill="none" xmlns="http://www.w3.org/2000/svg">
<rect width="42" height="42" rx="21" fill="#00EC42"/>
<path d="M22.3343 15.1477C22.3274 15.147 22.3199 15.147 22.3124 15.147C22.0537 15.147 21.8437 15.357 21.8437 15.6158C21.8437 15.8652 22.0387 16.0695 22.2849 16.0839H22.2862C24.4943 16.2283 26.2305 18.0545 26.2305 20.2858C26.2305 20.402 26.2255 20.517 26.2168 20.6308L26.218 20.6158C26.218 20.8745 26.428 21.0845 26.6868 21.0845C26.9455 21.0845 27.1555 20.8745 27.1555 20.6158C27.1612 20.5264 27.1643 20.422 27.1643 20.3164C27.1643 17.5789 25.0412 15.337 22.3518 15.1483L22.3355 15.1477H22.3343ZM22.288 12.7189C22.5687 12.7327 29.1618 13.1489 29.1618 20.6158C29.1618 20.8745 29.3718 21.0845 29.6305 21.0845C29.8893 21.0845 30.0993 20.8745 30.0993 20.6158C30.1087 20.467 30.1143 20.2939 30.1143 20.1189C30.1143 15.707 26.6949 12.0933 22.3612 11.7845L22.3343 11.7833C22.3287 11.7833 22.3224 11.7827 22.3162 11.7827C22.0643 11.7827 21.8587 11.9789 21.843 12.2264V12.2277C21.8424 12.2345 21.8424 12.2427 21.8424 12.2508C21.8424 12.5014 22.0393 12.7064 22.2868 12.7189H22.288ZM30.2093 25.4695C30.1412 25.0477 30.0005 24.6689 29.8005 24.3302L29.8087 24.3452C29.7374 24.2289 29.6205 24.147 29.483 24.1245L29.4805 24.1239L23.8749 23.2339C23.853 23.2302 23.8274 23.2283 23.8018 23.2283C23.6724 23.2283 23.5549 23.2802 23.4699 23.3645C23.0474 23.7895 22.7237 24.312 22.5349 24.8964L22.5274 24.9239C20.0174 23.8989 18.0643 21.9458 17.0637 19.502L17.0399 19.4364C17.6512 19.2402 18.1737 18.9158 18.598 18.4933C18.683 18.4083 18.7355 18.2908 18.7355 18.1614C18.7355 18.1358 18.7337 18.1108 18.7293 18.0864L18.7299 18.0889L17.8393 12.4833C17.8168 12.3433 17.7349 12.2258 17.6205 12.1558L17.6187 12.1545C17.303 11.9664 16.9349 11.8283 16.5412 11.7633L16.523 11.7608C16.3262 11.717 16.0999 11.6914 15.868 11.6914C15.8524 11.6914 15.8368 11.6914 15.8212 11.692H15.8237H15.8199C13.6343 11.707 11.8662 13.4764 11.853 15.6614V15.6627C11.8624 23.6383 18.3249 30.1014 26.2999 30.1108H26.3012C28.4887 30.0964 30.258 28.327 30.2724 26.1414V26.1402C30.2724 26.1277 30.2724 26.1127 30.2724 26.0977C30.2724 25.8752 30.2499 25.6583 30.2062 25.4489L30.2099 25.4695H30.2093ZM26.3005 29.1733C18.8424 29.1645 12.7993 23.1208 12.7905 15.6633C12.8024 13.9927 14.1543 12.6408 15.8243 12.6295H15.8255C15.8355 12.6295 15.848 12.6295 15.8599 12.6295C16.0299 12.6295 16.1955 12.6483 16.3555 12.6833L16.3405 12.6802C16.5693 12.7177 16.7749 12.7808 16.9674 12.8677L16.9518 12.8614L17.7655 17.9877C17.373 18.3177 16.888 18.5508 16.3549 18.6439L16.3368 18.6464C16.1149 18.6864 15.9493 18.8777 15.9493 19.1083C15.9493 19.1633 15.9587 19.2158 15.9762 19.2645L15.9749 19.2614C17.0824 22.4314 19.5343 24.8827 22.6287 25.967L22.7043 25.9902C22.7499 26.0064 22.8024 26.0158 22.8574 26.0158C23.0874 26.0158 23.2787 25.8502 23.318 25.6314L23.3187 25.6283C23.4143 25.077 23.6474 24.592 23.9818 24.1939L23.978 24.1983L29.1037 25.0127C29.1868 25.1964 29.2518 25.4102 29.2887 25.6339L29.2905 25.6489C29.3193 25.7858 29.3362 25.9433 29.3362 26.1045C29.3362 26.1158 29.3362 26.1264 29.3362 26.1377V26.1358C29.3262 27.8077 27.9743 29.1608 26.3037 29.1727H26.3024L26.3005 29.1733Z" fill="white"/>
</svg>
