<svg width="20" height="20" viewBox="0 0 20 20" fill="none" xmlns="http://www.w3.org/2000/svg">
<g clip-path="url(#clip0_1522_18237)">
<path d="M19.4998 18.9998H18.9998V10.9999H17.9998V9.9999H16.9998V10.9999H15.9998V12.9999H14.9999V10.9999V8.99991H13.9999V10.9999H12.9999V7.99992H11.9999V10.9999V12.9999H10.9999V10.9999H9.9999V8.99991H8.99991V10.9999H7.99992V18.9998H5.99994V7.99992H6.99993C7.55227 7.99992 7.99992 7.55227 7.99992 6.99993V5.99994H16.9998V8.99991H17.9998V5.99994H18.9998C19.4635 5.99994 19.8665 5.68096 19.9731 5.2296C20.0798 4.77827 19.8618 4.31293 19.4471 4.10562L17.4471 3.10563C17.3082 3.0363 17.1551 2.99997 16.9998 2.99997H6.10928L4.89429 0.552651C4.7223 0.20867 4.3723 0 4.00031 0C3.92399 0 3.84699 0.00867179 3.77031 0.0269919C3.31895 0.133319 2.99997 0.536323 2.99997 0.99999V2.99997H0.99999C0.447652 2.99997 0 3.44762 0 3.99996V4.99995C0 5.55229 0.447652 5.99994 0.99999 5.99994H2.99997V6.99993V18.9998H0.499995C0.22367 18.9998 0 19.2235 0 19.4998C0 19.7761 0.22367 19.9998 0.499995 19.9998H19.4998C19.7761 19.9998 19.9998 19.7761 19.9998 19.4998C19.9998 19.2235 19.7761 18.9998 19.4998 18.9998ZM2.99997 4.99995H0.99999V3.99996H2.99997V4.99995ZM16.9998 3.99996L18.9998 4.99995H7.99992C7.99992 4.7346 7.89457 4.48031 7.70692 4.29297L7.41426 3.99996H16.9998ZM3.99996 0.99999L4.99995 2.99997H3.99996V0.99999ZM3.99996 3.99996H5.99994L6.99993 4.99995V6.99993H3.99996V3.99996ZM4.99995 18.9998H3.99996V7.99992H4.99995V18.9998ZM17.9998 18.9998H8.99991V11.9999H9.9999V13.9999H12.9999V11.9999H13.9999V13.9999H16.9998V11.9999H17.9998V18.9998Z" fill="#232176"/>
</g>
<defs>
<clipPath id="clip0_1522_18237">
<rect width="20" height="20" fill="white"/>
</clipPath>
</defs>
</svg>
