<svg width="13" height="13" viewBox="0 0 13 13" fill="none" xmlns="http://www.w3.org/2000/svg">
<path d="M1.25342 4.79401V4.68042C1.25342 3.31146 2.24283 2.14383 3.5918 1.919C4.46723 1.77036 5.39357 2.06138 6.03203 2.70082L6.26704 2.93544L6.48443 2.70082C7.14051 2.06138 8.04923 1.77036 8.94228 1.919C10.2917 2.14383 11.2807 3.31146 11.2807 4.68042V4.79401C11.2807 5.60676 10.9438 6.38427 10.3484 6.93851L6.80953 10.2424C6.66265 10.3795 6.46876 10.4559 6.26704 10.4559C6.06532 10.4559 5.87144 10.3795 5.72455 10.2424L2.18544 6.93851C1.59086 6.38427 1.25342 5.60676 1.25342 4.79401H1.25342Z" fill="#98A2B3"/>
</svg>
