<svg width="41" height="41" viewBox="0 0 41 41" fill="none" xmlns="http://www.w3.org/2000/svg">
<path d="M25.4998 35.7004V22.1004C25.4998 21.6495 25.3207 21.2171 25.0019 20.8983C24.6831 20.5795 24.2507 20.4004 23.7998 20.4004H16.9998C16.5489 20.4004 16.1165 20.5795 15.7977 20.8983C15.4789 21.2171 15.2998 21.6495 15.2998 22.1004V35.7004" stroke="#1E88E5" stroke-width="2.55" stroke-linecap="round" stroke-linejoin="round"/>
<path d="M5.09961 16.9995C5.09949 16.5049 5.20728 16.0163 5.41545 15.5676C5.62362 15.119 5.92717 14.7212 6.30491 14.4019L18.2049 4.20361C18.8186 3.68495 19.5961 3.40039 20.3996 3.40039C21.2031 3.40039 21.9807 3.68495 22.5943 4.20361L34.4943 14.4019C34.8721 14.7212 35.1756 15.119 35.3838 15.5676C35.592 16.0163 35.6998 16.5049 35.6996 16.9995V32.2995C35.6996 33.2013 35.3414 34.0661 34.7038 34.7037C34.0662 35.3413 33.2014 35.6995 32.2996 35.6995H8.49961C7.59788 35.6995 6.73307 35.3413 6.09545 34.7037C5.45782 34.0661 5.09961 33.2013 5.09961 32.2995V16.9995Z" stroke="#1E88E5" stroke-width="2.55" stroke-linecap="round" stroke-linejoin="round"/>
</svg>
