<?xml version="1.0" encoding="iso-8859-1"?>
<!-- Uploaded to: SVG Repo, www.svgrepo.com, Generator: SVG Repo Mixer Tools -->
<svg fill="#000000" height="800px" width="800px" version="1.1" id="Layer_1" xmlns="http://www.w3.org/2000/svg" xmlns:xlink="http://www.w3.org/1999/xlink" 
	 viewBox="0 0 512 512" xml:space="preserve">
<g>
	<g>
		<path d="M413.658,239.729c-13.244,0-25.67,3.527-36.424,9.665v-70.059c0-2.764-1.104-5.267-2.889-7.104
			c-0.006-0.007-0.006-0.014-0.013-0.021L209.168,3.073C207.255,1.116,204.636,0.008,201.9,0c-0.009,0-0.019,0-0.029,0
			c-2.726,0-5.339,1.091-7.257,3.032L126.19,72.306V36.972c0-5.633-4.566-10.199-10.199-10.199c-5.633,0-10.199,4.566-10.199,10.199
			v55.985l-78.239,79.21c-0.005,0.005-0.004,0.009-0.009,0.014c-1.812,1.841-2.934,4.365-2.934,7.154v322.465
			c0,5.633,4.566,10.199,10.199,10.199h332.226c5.632,0,10.199-4.566,10.199-10.199V377.53c7.942,4.534,16.799,7.632,26.225,8.944
			v115.238c0,5.633,4.567,10.199,10.199,10.199c5.632,0,10.199-4.566,10.199-10.199V386.473
			c35.845-4.984,63.534-35.817,63.534-73.011C487.391,272.806,454.314,239.729,413.658,239.729z M201.828,24.755l140.991,144.381
			H59.217L201.828,24.755z M252.068,491.602H149.774V333.073h102.294V491.602z M356.835,266.529
			c-10.557,12.759-16.91,29.119-16.91,46.935c0,17.816,6.353,34.174,16.91,46.935v131.204h-84.368V322.874
			c0-5.633-4.567-10.199-10.199-10.199H139.575c-5.633,0-10.199,4.566-10.199,10.199v168.727H45.007V189.535h311.828V266.529z
			 M413.658,366.797c-29.408,0-53.335-23.925-53.335-53.335c0-29.409,23.926-53.335,53.335-53.335
			c29.408,0,53.335,23.925,53.335,53.335C466.992,342.872,443.066,366.797,413.658,366.797z"/>
	</g>
</g>
<g>
	<g>
		<path d="M68.334,337.594c-5.633,0-10.199,4.566-10.199,10.199v9.179c0,5.633,4.566,10.199,10.199,10.199
			s10.199-4.566,10.199-10.199v-9.179C78.533,342.16,73.967,337.594,68.334,337.594z"/>
	</g>
</g>
<g>
	<g>
		<path d="M68.334,384.51c-5.633,0-10.199,4.566-10.199,10.199v75.474c0,5.633,4.566,10.199,10.199,10.199
			s10.199-4.566,10.199-10.199v-75.474C78.533,389.076,73.967,384.51,68.334,384.51z"/>
	</g>
</g>
</svg>