<svg width="37" height="37" viewBox="0 0 37 37" fill="none" xmlns="http://www.w3.org/2000/svg">
<g clip-path="url(#clip0_1499_7751)">
<path d="M33.2224 0C34.3127 0 35.3584 0.433134 36.1294 1.20412C36.9004 1.9751 37.3335 3.02078 37.3335 4.11111V32.8889C37.3335 33.9792 36.9004 35.0249 36.1294 35.7959C35.3584 36.5669 34.3127 37 33.2224 37H4.44461C3.35427 37 2.3086 36.5669 1.53761 35.7959C0.76663 35.0249 0.333496 33.9792 0.333496 32.8889V4.11111C0.333496 3.02078 0.76663 1.9751 1.53761 1.20412C2.3086 0.433134 3.35427 0 4.44461 0H33.2224ZM32.1946 31.8611V20.9667C32.1946 19.1894 31.4886 17.485 30.2319 16.2283C28.9752 14.9716 27.2707 14.2656 25.4935 14.2656C23.7463 14.2656 21.7113 15.3344 20.7246 16.9378V14.6561H14.9896V31.8611H20.7246V21.7272C20.7246 20.1444 21.9991 18.8494 23.5818 18.8494C24.3451 18.8494 25.077 19.1526 25.6167 19.6923C26.1564 20.232 26.4596 20.964 26.4596 21.7272V31.8611H32.1946ZM8.30905 11.4289C9.22493 11.4289 10.1033 11.0651 10.7509 10.4174C11.3986 9.76981 11.7624 8.89144 11.7624 7.97556C11.7624 6.06389 10.2207 4.50167 8.30905 4.50167C7.38772 4.50167 6.50412 4.86766 5.85264 5.51915C5.20116 6.17063 4.83516 7.05422 4.83516 7.97556C4.83516 9.88722 6.39739 11.4289 8.30905 11.4289ZM11.1663 31.8611V14.6561H5.47238V31.8611H11.1663Z" fill="#000C66"/>
</g>
<defs>
<clipPath id="clip0_1499_7751">
<rect width="37" height="37" fill="white"/>
</clipPath>
</defs>
</svg>
