<svg width="9" height="9" viewBox="0 0 9 9" fill="none" xmlns="http://www.w3.org/2000/svg">
<path d="M3.96308 7.55004C3.26486 6.68908 1.71191 4.60239 1.71191 3.4303C1.71191 2.00824 2.86171 0.855469 4.28009 0.855469C5.69793 0.855469 6.84826 2.00824 6.84826 3.4303C6.84826 4.60239 5.28328 6.68908 4.59709 7.55004C4.43257 7.75522 4.1276 7.75522 3.96308 7.55004ZM4.28009 4.28858C4.75226 4.28858 5.13614 3.9037 5.13614 3.4303C5.13614 2.95691 4.75226 2.57203 4.28009 2.57203C3.80792 2.57203 3.42403 2.95691 3.42403 3.4303C3.42403 3.9037 3.80792 4.28858 4.28009 4.28858Z" fill="#F79009"/>
</svg>
