<svg width="134" height="55" viewBox="0 0 134 55" fill="none" xmlns="http://www.w3.org/2000/svg">
<path d="M55.2685 9.82733V11.0683C55.2685 11.268 55.3408 11.4374 55.4854 11.5766C55.63 11.7169 55.8016 11.7859 56.0012 11.7859H63.2648C64.0126 11.8064 64.4777 11.8162 64.6623 11.8162C64.8468 11.8162 64.9288 11.9662 64.9094 12.264C64.7205 15.3427 63.5691 17.0218 61.4573 17.3013H56.0023C55.8027 17.3013 55.6311 17.3715 55.4865 17.5107C55.3419 17.6499 55.2696 17.8193 55.2696 18.0189V19.1402C55.2696 19.3398 55.3419 19.5092 55.4865 19.6484C55.6311 19.7876 55.8027 19.8578 56.0023 19.8578H65.5234C65.7328 19.8578 65.9065 19.9279 66.0468 20.0671C66.186 20.2074 66.2561 20.3758 66.2561 20.5754V24.6707C66.2561 24.8703 66.186 25.0397 66.0468 25.1789C65.9076 25.3181 65.7328 25.3883 65.5234 25.3883H49.9495C49.7402 25.3883 49.5654 25.3181 49.4261 25.1789C49.2869 25.0397 49.2168 24.8703 49.2168 24.6707V4.35726C49.2168 4.15763 49.2859 3.98928 49.4261 3.849C49.5654 3.70979 49.7402 3.63965 49.9495 3.63965H65.5234C65.7328 3.63965 65.9065 3.70979 66.0468 3.849C66.186 3.98928 66.2561 4.15763 66.2561 4.35726V8.39318C66.2561 8.59282 66.186 8.76224 66.0468 8.90145C65.9076 9.04173 65.7328 9.1108 65.5234 9.1108H56.0023C55.8027 9.1108 55.6311 9.18094 55.4865 9.32015C55.3419 9.45935 55.2696 9.62878 55.2696 9.82841L55.2685 9.82733Z" fill="#031752"/>
<path d="M75.996 4.32808C76.0759 4.14895 76.2129 3.99464 76.4072 3.86514C76.6014 3.73565 76.8129 3.6709 77.0428 3.6709H81.3172C81.5265 3.6709 81.7283 3.73565 81.9226 3.86514C82.1168 3.99464 82.2538 4.14895 82.3337 4.32808L91.3908 24.8195C91.7199 25.1584 91.7523 25.3375 91.4879 25.358C91.2235 25.3785 90.917 25.3882 90.5685 25.3882H86.0998C85.0531 25.4087 84.1671 24.5962 83.4398 22.9516L83.1258 22.2933H75.9367C75.7068 22.2933 75.4953 22.3581 75.3011 22.4875C75.1068 22.617 74.9698 22.7714 74.8899 22.9505L74.0385 24.7289C73.8788 25.167 73.7223 25.3861 73.568 25.3861H67.7612C67.662 25.3861 67.5551 25.3666 67.4397 25.3267C67.3253 25.2868 67.2325 25.2274 67.1634 25.1476C67.0933 25.0677 67.049 24.9685 67.0285 24.8487C67.0091 24.7289 67.0382 24.5897 67.1181 24.43L75.996 4.327V4.32808ZM77.8046 17.2419H81.2276L80.9589 16.5999C80.7495 16.1013 80.5035 15.5207 80.2186 14.8582C79.9348 14.1956 79.6683 13.5751 79.419 12.9978C79.3391 12.8186 79.2496 12.729 79.1503 12.729C79.051 12.729 78.9561 12.8186 78.8665 12.9978L77.3417 16.5999C77.2618 16.7693 77.2618 16.9182 77.3417 17.0477C77.4215 17.1772 77.5759 17.2419 77.8046 17.2419Z" fill="#031752"/>
<path d="M98.2089 29.374C98.2888 29.1949 98.4258 29.0405 98.6201 28.911C98.8143 28.7815 99.0258 28.7168 99.2557 28.7168H103.53C103.739 28.7168 103.941 28.7815 104.135 28.911C104.33 29.0405 104.467 29.1949 104.547 29.374L113.604 49.8654C113.933 50.2043 113.965 50.3834 113.701 50.4039C113.436 50.4244 113.13 50.4341 112.781 50.4341H108.313C107.266 50.4546 106.38 49.6421 105.653 47.9975L105.339 47.3392H98.1496C97.9197 47.3392 97.7082 47.404 97.514 47.5334C97.3197 47.6629 97.1827 47.8173 97.1028 47.9964L96.2514 49.7748C96.0917 50.2129 95.9352 50.432 95.7809 50.432H89.9741C89.8749 50.432 89.768 50.4125 89.6526 50.3726C89.5382 50.3327 89.4454 50.2733 89.3763 50.1935C89.3062 50.1136 89.2619 50.0143 89.2414 49.8946C89.222 49.7748 89.2511 49.6356 89.331 49.4759L98.2089 29.3729V29.374ZM100.018 42.2878H103.44L103.172 41.6458C102.962 41.1472 102.716 40.5666 102.432 39.9041C102.148 39.2415 101.881 38.621 101.632 38.0437C101.552 37.8645 101.462 37.7749 101.363 37.7749C101.264 37.7749 101.169 37.8645 101.079 38.0437L99.5546 41.6458C99.4747 41.8152 99.4747 41.9641 99.5546 42.0936C99.6344 42.2231 99.7887 42.2878 100.018 42.2878Z" fill="#031752"/>
<path d="M96.1311 18.7663C96.3502 18.8958 96.9998 19.1602 98.0811 19.5584C99.1624 19.9566 100.171 20.1562 101.108 20.1562C102.045 20.1562 102.702 20.0321 103.17 19.7828C103.639 19.5336 103.873 19.1656 103.873 18.6767C103.873 18.4178 103.77 18.2138 103.566 18.0638C103.362 17.9138 103.09 17.7897 102.752 17.6904C102.413 17.5911 102.019 17.5113 101.571 17.4509C101.123 17.3915 100.665 17.3117 100.196 17.2113C99.7483 17.1314 99.2217 17.0365 98.6196 16.9275C98.0164 16.8174 97.3991 16.6609 96.7667 16.457C96.1344 16.253 95.5063 15.9908 94.8837 15.6725C94.261 15.3541 93.7053 14.9473 93.2175 14.4541C92.7287 13.961 92.338 13.3729 92.0445 12.6909C91.7499 12.0088 91.6031 11.1995 91.6031 10.2617C91.6031 8.89666 91.8772 7.77113 92.4254 6.8841C92.9736 5.99706 93.6707 5.29023 94.5178 4.76146C95.3649 4.23377 96.3092 3.86687 97.3505 3.66292C98.3919 3.45896 99.4009 3.35645 100.377 3.35645C102.091 3.35645 103.628 3.59817 104.989 4.08162C106.348 4.56506 107.652 5.26973 108.897 6.19669C109.057 6.33698 109.146 6.50532 109.166 6.70496C109.185 6.9046 109.136 7.08373 109.017 7.24344L106.626 10.5315C106.506 10.6912 106.344 10.7905 106.14 10.8304C105.936 10.8704 105.749 10.8304 105.58 10.7107C104.544 10.0826 103.577 9.63478 102.68 9.36608C101.784 9.09737 100.956 8.96248 100.199 8.96248C99.9696 8.96248 99.7084 8.96788 99.4149 8.97759C99.1214 8.9873 98.8419 9.02723 98.5775 9.09737C98.3131 9.16752 98.094 9.2819 97.9203 9.44161C97.7455 9.60132 97.6592 9.82039 97.6592 10.0988C97.6592 10.3772 97.8728 10.6125 98.3023 10.8315C98.7307 11.0506 99.2217 11.2405 99.7742 11.3991C100.327 11.5589 100.858 11.683 101.366 11.7725C101.874 11.8621 102.198 11.9171 102.337 11.9365C103.074 12.0768 103.881 12.2775 104.759 12.5419C105.635 12.8063 106.457 13.2024 107.224 13.73C107.992 14.2588 108.634 14.9408 109.153 15.7771C109.671 16.6145 109.93 17.671 109.93 18.9454C109.93 20.1314 109.715 21.1555 109.287 22.0166C108.858 22.8788 108.263 23.5857 107.501 24.1393C106.739 24.6918 105.822 25.1008 104.751 25.3651C103.68 25.6295 102.491 25.7612 101.187 25.7612C100.121 25.7612 99.1289 25.6792 98.2127 25.5151C97.2955 25.35 96.4387 25.1191 95.6423 24.8202C94.8448 24.5213 94.1056 24.1997 93.4225 23.8565C92.7394 23.5134 92.0197 23.0418 91.2632 22.444C90.974 22.2443 90.9837 21.9659 91.2934 21.6066L92.9229 19.3199C93.7398 18.4134 94.8114 18.2289 96.1365 18.7663H96.1311Z" fill="#031752"/>
<path d="M131.176 4.5083L123.524 16.5394C123.414 16.7089 123.32 16.9236 123.24 17.1826C123.16 17.4416 123.12 17.6714 123.12 17.87V25.3882H118.741C117.645 25.3084 117.072 24.7203 117.022 23.6249V17.9002C117.022 17.7006 116.987 17.4664 116.917 17.1977C116.847 16.929 116.763 16.7196 116.664 16.5696C115.438 14.5269 114.187 12.5262 112.913 10.5686C111.637 8.61112 110.367 6.591 109.101 4.5083C109.002 4.32916 108.982 4.14463 109.042 3.95471C109.101 3.76586 109.236 3.6709 109.446 3.6709H114.887C115.096 3.6709 115.307 3.73025 115.522 3.85003C115.736 3.96982 115.893 4.11873 115.993 4.29895L120.088 11.1891L124.228 4.29895C124.328 4.11981 124.485 3.96982 124.699 3.85003C124.913 3.73025 125.12 3.6709 125.319 3.6709H130.835C131.044 3.6709 131.193 3.74104 131.283 3.88025C131.372 4.01946 131.338 4.2288 131.178 4.5083H131.176Z" fill="#031752"/>
<path d="M49.1184 50.463V29.2874C49.1184 29.0866 49.1885 28.9172 49.3278 28.7759C49.467 28.6356 49.6418 28.5654 49.8511 28.5654H59.1467C62.3452 28.5654 64.9653 29.4827 67.0081 31.3161C68.1142 32.3186 68.9537 33.5056 69.5268 34.8783C70.0998 36.2509 70.3857 37.7941 70.3857 39.5066C70.3857 41.2192 70.0987 42.7526 69.5268 44.135C68.9537 45.5174 68.1142 46.7098 67.0081 47.7123C65.9916 48.6036 64.8261 49.2803 63.5107 49.741C62.1952 50.2018 60.7405 50.4328 59.1467 50.4328L49.1195 50.463H49.1184ZM55.1712 44.9325H59.1456C59.7132 44.9325 60.3035 44.8623 60.9164 44.722C61.5294 44.5818 62.0797 44.3185 62.5675 43.9332C63.0553 43.548 63.4589 43.0008 63.7783 42.2951C64.0966 41.5883 64.2563 40.6645 64.2563 39.5218C64.2563 38.379 64.0966 37.4703 63.7783 36.7646C63.4589 36.0578 63.0509 35.5117 62.5524 35.1265C62.0538 34.7412 61.5035 34.4779 60.9013 34.3377C60.2981 34.1974 59.7132 34.1272 59.1456 34.1272H55.9039C55.7043 34.1272 55.5327 34.1974 55.3881 34.3377C55.2435 34.4779 55.1712 34.6484 55.1712 34.8492V44.9336V44.9325Z" fill="#031752"/>
<path d="M77.5263 34.7895V36.037C77.5263 36.2377 77.5986 36.4071 77.7432 36.5474C77.8878 36.6877 78.0594 36.7578 78.259 36.7578H85.5226C86.2704 36.7783 86.7355 36.788 86.9201 36.788C87.1046 36.788 87.1866 36.938 87.1672 37.2391C86.9784 40.3351 85.8269 42.0229 83.7151 42.3034H78.2601C78.0605 42.3034 77.8889 42.3736 77.7443 42.5138C77.5997 42.6541 77.5274 42.8246 77.5274 43.0254V44.152C77.5274 44.3527 77.5997 44.5232 77.7443 44.6635C77.8889 44.8037 78.0605 44.8739 78.2601 44.8739H87.7812C87.9906 44.8739 88.1643 44.944 88.3046 45.0843C88.4438 45.2246 88.5139 45.3951 88.5139 45.5958V49.7138C88.5139 49.9145 88.4438 50.0839 88.3046 50.2253C88.1654 50.3655 87.9906 50.4357 87.7812 50.4357H72.2073C71.998 50.4357 71.8232 50.3655 71.684 50.2253C71.5448 50.085 71.4746 49.9145 71.4746 49.7138V29.2903C71.4746 29.0896 71.5437 28.9202 71.684 28.7788C71.8232 28.6385 71.998 28.5684 72.2073 28.5684H87.7812C87.9906 28.5684 88.1643 28.6385 88.3046 28.7788C88.4438 28.9191 88.5139 29.0896 88.5139 29.2903V33.3478C88.5139 33.5485 88.4438 33.719 88.3046 33.8593C88.1654 33.9996 87.9906 34.0697 87.7812 34.0697H78.2601C78.0605 34.0697 77.8889 34.1399 77.7443 34.2802C77.5997 34.4204 77.5274 34.5909 77.5274 34.7917L77.5263 34.7895Z" fill="#031752"/>
<path d="M131.32 46.8414V50.1025C131.38 50.3637 131.136 50.4738 130.588 50.4328H115.313C115.083 50.4328 114.904 50.3626 114.774 50.2223C114.645 50.082 114.58 49.9115 114.58 49.7108V29.2874C114.58 29.0866 114.645 28.9172 114.774 28.7759C114.904 28.6356 115.083 28.5654 115.313 28.5654H119.901C120.101 28.5654 120.272 28.6356 120.417 28.7759C120.562 28.9161 120.634 29.0866 120.634 29.2874V44.2105C120.634 44.4113 120.701 44.5818 120.836 44.722C120.971 44.8623 121.147 44.9325 121.367 44.9325H128.84C130.473 44.9325 131.301 45.5692 131.32 46.8414Z" fill="#031752"/>
<path d="M23.7268 2.2334H22.6045C22.2952 2.2334 22.0444 2.48415 22.0444 2.79346V5.88083C22.0444 6.19015 22.2952 6.4409 22.6045 6.4409H23.7268C24.0361 6.4409 24.2868 6.19015 24.2868 5.88083V2.79346C24.2868 2.48415 24.0361 2.2334 23.7268 2.2334Z" fill="#00EC42"/>
<path d="M29.5426 4.3738L28.5516 3.84692C28.2785 3.7017 27.9394 3.80538 27.7942 4.07849L26.3448 6.80448C26.1995 7.07758 26.3032 7.4167 26.5763 7.56192L27.5673 8.0888C27.8404 8.23401 28.1795 8.13033 28.3247 7.85723L29.7741 5.13124C29.9193 4.85813 29.8157 4.51901 29.5426 4.3738Z" fill="#00EC42"/>
<path d="M17.7791 3.84788L16.7882 4.37476C16.5151 4.51998 16.4114 4.85909 16.5566 5.1322L18.0061 7.85819C18.1513 8.1313 18.4904 8.23497 18.7635 8.08976L19.7544 7.56288C20.0275 7.41766 20.1312 7.07854 19.986 6.80544L18.5366 4.07945C18.3914 3.80634 18.0522 3.70266 17.7791 3.84788Z" fill="#00EC42"/>
<path d="M25.6532 18.3574H20.6785V23.3322H25.6532V18.3574Z" fill="#00EC42"/>
<path d="M43.2715 28.9718L25.37 9.63065C24.8034 9.01879 23.9995 8.66699 23.1653 8.66699C22.3312 8.66699 21.5283 9.01771 20.9617 9.62957L3.05911 28.9728C2.61559 29.452 2.49796 30.1469 2.75911 30.7447C3.02026 31.3426 3.61162 31.73 4.26449 31.73H9.43456V46.3553C9.43456 47.2607 10.1716 47.9977 11.077 47.9977H11.2032L18.3006 46.2118L23.5214 51.4013C23.8549 51.7337 24.2984 51.916 24.77 51.916C25.2459 51.916 25.6915 51.7304 26.0261 51.3937L33.4127 43.9629C33.8853 43.487 34.113 42.859 34.0979 42.2352L35.409 41.905C36.2421 41.8263 36.8961 41.1237 36.8961 40.2702V31.7278H42.0661C42.719 31.7278 43.3093 31.3415 43.5704 30.7437C43.8316 30.1458 43.714 29.4498 43.2704 28.9707L43.2715 28.9718ZM32.0821 42.641L24.7689 49.9974L15.6158 40.8971L17.6024 30.4189C17.6586 30.1221 17.9467 29.9063 18.2866 29.9063C18.3373 29.9063 18.3891 29.9106 18.4398 29.9203L18.9136 30.0099C19.1121 30.0476 19.2837 30.1545 19.3981 30.3131C19.5006 30.4555 19.5405 30.6217 19.5103 30.7804L18.0395 38.5371L29.0724 27.4394C29.2095 27.3013 29.3929 27.2247 29.5893 27.2247C29.6843 27.2247 29.7771 27.243 29.8667 27.2786C29.9562 27.3142 30.0361 27.3671 30.1051 27.4362L30.4472 27.7761C30.7332 28.0599 30.7343 28.5228 30.4505 28.8088L22.916 36.3875L24.2466 37.7094L27.2735 34.6652C27.4117 34.5271 27.5951 34.4505 27.7915 34.4505C27.9879 34.4505 28.1692 34.526 28.3062 34.662L28.6483 35.0019C28.7865 35.1389 28.8631 35.3224 28.8631 35.5177C28.8631 35.713 28.7886 35.8965 28.6516 36.0346L25.3505 39.3551L26.6811 40.677L29.3422 37.9997L29.4404 37.9155C29.5731 37.8011 29.7436 37.7385 29.9195 37.7385C30.1127 37.7385 30.2929 37.8119 30.4256 37.9447L30.7677 38.2846C30.9059 38.4216 30.9825 38.6051 30.9825 38.8004C30.9825 38.9957 30.908 39.1792 30.771 39.3173L27.771 42.3345L29.1016 43.6564L31.0925 41.6536C31.1853 41.5597 31.3094 41.509 31.4422 41.509C31.5749 41.509 31.6968 41.5597 31.7897 41.6525L32.0832 41.9439C32.176 42.0367 32.2278 42.1597 32.2278 42.2914C32.2278 42.423 32.1771 42.5471 32.0853 42.6399L32.0821 42.641ZM34.8587 29.6926V39.9443L33.1591 40.3716L33.1094 40.322C32.9551 40.1687 32.7835 40.0392 32.5979 39.9346C33.0727 38.9482 32.8806 37.7418 32.0886 36.954L31.7465 36.6141C31.4508 36.3206 31.0915 36.1047 30.6954 35.9828C30.8476 35.1443 30.5821 34.281 29.9692 33.6713L29.6271 33.3314C29.449 33.1544 29.2516 33.0077 29.0368 32.89L31.7799 30.1307C32.2699 29.6376 32.5386 28.9825 32.5364 28.2865C32.5343 27.5894 32.2623 26.9365 31.7691 26.4466L31.4271 26.1067C31.1778 25.8585 30.8864 25.6675 30.5627 25.538C30.2508 25.4128 29.9228 25.3491 29.5882 25.3491C28.8901 25.3491 28.235 25.6222 27.7419 26.1175L21.0211 32.8782L21.3524 31.1311C21.4797 30.462 21.3254 29.7833 20.9186 29.2189C20.5236 28.6696 19.9355 28.2973 19.261 28.1689L18.7873 28.0793C18.6222 28.048 18.4528 28.0318 18.2855 28.0318C17.0445 28.0318 15.9816 28.8897 15.7582 30.0703L13.7284 40.7773C13.6399 41.2468 13.7888 41.727 14.1266 42.0637L16.6129 44.5348L11.4709 45.8287V29.6915H5.16663L22.4563 11.013C22.6409 10.8134 22.8923 10.7033 23.1642 10.7033C23.4362 10.7033 23.6887 10.8134 23.8743 11.0141L41.1629 29.6926H34.8587Z" fill="#00EC42"/>
</svg>
