<svg width="24" height="24" viewBox="0 0 24 24" fill="none" xmlns="http://www.w3.org/2000/svg">
<path d="M19.5923 4.80078C20.0974 4.80081 20.5245 4.9762 20.8745 5.32617C21.2245 5.67614 21.3999 6.10329 21.3999 6.6084V17.9932C21.3999 18.4983 21.2245 18.9254 20.8745 19.2754C20.5245 19.6254 20.0974 19.8008 19.5923 19.8008H4.20752C3.70241 19.8008 3.27526 19.6254 2.92529 19.2754C2.57532 18.9254 2.39993 18.4983 2.3999 17.9932V15.5449C2.41133 15.4403 2.45723 15.2108 2.64014 15.0488C2.84736 14.857 3.09091 14.8447 3.15186 14.8447C3.20096 14.8447 3.51751 14.8573 3.73682 15.1211C3.84948 15.2576 3.88695 15.4002 3.8999 15.4971V17.9932C3.89993 18.0829 3.92918 18.1562 3.98682 18.2139C4.04445 18.2715 4.11775 18.3008 4.20752 18.3008H19.5923C19.6821 18.3008 19.7554 18.2715 19.813 18.2139C19.8706 18.1562 19.8999 18.0829 19.8999 17.9932V7.74316L12.3862 12.5527C12.3095 12.5962 12.23 12.6303 12.1479 12.6553C12.0659 12.6803 11.9832 12.6934 11.8999 12.6934C11.8166 12.6934 11.7339 12.6803 11.6519 12.6553C11.5698 12.6303 11.4903 12.5962 11.4136 12.5527L3.8999 7.74316V11.1846C3.88379 11.3099 3.82931 11.548 3.63916 11.7012C3.60272 11.7251 3.5658 11.7485 3.5415 11.7725C3.371 11.8683 3.20074 11.8565 3.15186 11.8564C3.06651 11.8564 2.93245 11.8565 2.79834 11.7725C2.48618 11.6029 2.41309 11.2371 2.3999 11.1289V6.6084C2.39993 6.10329 2.57532 5.67614 2.92529 5.32617C3.27526 4.9762 3.70241 4.80081 4.20752 4.80078H19.5923ZM11.8999 11.3008L19.7466 6.30078H4.05322L11.8999 11.3008Z" fill="black"/>
</svg>
