<svg width="18" height="20" viewBox="0 0 18 20" fill="none" xmlns="http://www.w3.org/2000/svg">
<path d="M16.5913 10.625H14.4819L13.163 8.08687V6.49625C13.019 5.97375 12.6013 5.58437 12.0787 5.45937L11.4405 6.63312C11.1429 7.18062 10.5626 7.52063 9.92628 7.52063C9.92499 7.52063 9.92435 7.52063 9.92306 7.52063L4.6277 7.51312L3.55693 10.625H1.38004V7.52063H0.29834V6.32125C0.29834 5.54938 0.723177 4.85125 1.39096 4.47062C1.56193 1.9775 3.70218 0 6.30777 0H11.6635C14.381 0 16.5913 2.14937 16.5913 4.79187V10.625ZM15.2731 9.375H15.3065V4.79187C15.3058 2.83875 13.672 1.25 11.6635 1.25H6.30777C4.29927 1.25 2.66548 2.83875 2.66548 4.79187V5.32687L2.22457 5.46875C1.85822 5.58625 1.60627 5.905 1.58506 6.27063H2.66612V9.27625L3.70282 6.2625L9.92499 6.27125H9.92628C10.085 6.27125 10.2303 6.18625 10.3048 6.04938L11.3287 4.1675H11.7163C13.0306 4.1675 14.1483 5.03875 14.4343 6.28625L14.4497 6.4225V7.79L15.2731 9.375Z" fill="white"/>
<path d="M9.79054 20C9.77898 20 9.76741 20 9.7552 20H8.12847C7.40798 19.9919 6.71706 19.7406 6.17525 19.2906C6.02421 19.165 5.85196 19.0287 5.672 18.8869C4.8461 18.2338 3.9103 17.4937 3.62879 16.7606L2.2778 13.9875L0.705063 13.1044L0 10.8238C0 10.0263 0.667785 9.37688 1.4879 9.37688H1.79319V10.6269H1.4879C1.39856 10.6269 1.32272 10.6831 1.29572 10.7613L1.78162 12.2656L3.26759 13.1L4.81204 16.275C4.99136 16.7381 5.8886 17.4475 6.48247 17.9169C6.67143 18.0662 6.85139 18.2087 7.0095 18.34C7.3225 18.6 7.72227 18.7456 8.1349 18.75H9.76162C10.2057 18.7356 10.6158 18.6212 10.9269 18.3644L11.2412 18.1088C11.8903 17.5831 12.8711 16.7894 13.0556 16.3137L14.6829 13.0794L16.3688 12.2594L16.7094 10.7619C16.7011 10.7231 16.6811 10.6956 16.6631 10.6769C16.6419 10.6531 16.6008 10.625 16.5397 10.625H16.192V9.375H16.5397C16.9376 9.375 17.3091 9.5275 17.5867 9.805C17.8637 10.0825 18.0103 10.4481 17.9994 10.8344L17.9846 10.9519L17.4942 13.1106L15.6476 14.0081L14.2356 16.8081C13.9567 17.5381 12.9521 18.3519 12.0658 19.0688L11.7586 19.3181C11.2245 19.7587 10.5265 20 9.79054 20Z" fill="white"/>
<path d="M7.78324 7.52027C7.78196 7.52027 7.78131 7.52027 7.78003 7.52027L7.7826 6.27027C7.94135 6.27027 8.08725 6.18527 8.16181 6.0484L9.00505 4.49902L10.1414 5.08402L9.29813 6.6334C9.00055 7.18027 8.42018 7.52027 7.78324 7.52027Z" fill="white"/>
<path d="M3.4964 7.52027H2.01172V6.27027H3.4964C3.65644 6.27027 3.80298 6.18465 3.87689 6.04777L4.72014 4.49902L5.85647 5.08402L5.01386 6.63215C4.71628 7.17965 4.13526 7.52027 3.4964 7.52027Z" fill="white"/>
<path d="M6.0627 13.2294C4.67442 13.2294 3.54517 12.1313 3.54517 10.7812C3.54517 10.0063 4.19431 9.375 4.99128 9.375H7.13347C7.93044 9.375 8.57959 10.0063 8.57959 10.7812C8.57959 12.1313 7.45033 13.2294 6.0627 13.2294ZM4.99128 10.625C4.90259 10.625 4.8306 10.695 4.8306 10.7812C4.8306 11.4419 5.38334 11.9794 6.0627 11.9794C6.74205 11.9794 7.29415 11.4419 7.29415 10.7812C7.29415 10.695 7.22216 10.625 7.13347 10.625H4.99128Z" fill="white"/>
<path d="M11.9539 13.2294C10.5663 13.2294 9.43701 12.1313 9.43701 10.7812C9.43701 10.0063 10.0862 9.375 10.8831 9.375H13.0253C13.8223 9.375 14.4714 10.0063 14.4714 10.7812C14.4714 12.1313 13.3422 13.2294 11.9539 13.2294ZM10.8831 10.625C10.7944 10.625 10.7225 10.695 10.7225 10.7812C10.7225 11.4419 11.2745 11.9794 11.9539 11.9794C12.6333 11.9794 13.186 11.4419 13.186 10.7812C13.186 10.695 13.114 10.625 13.0253 10.625H10.8831Z" fill="white"/>
<path d="M7.88867 9.89453H10.1279V11.1445H7.88867V9.89453Z" fill="white"/>
</svg>
