<svg width="20" height="20" viewBox="0 0 20 20" fill="none" xmlns="http://www.w3.org/2000/svg">
<path d="M17.5 7.85832V5.83333C17.5 4.94927 17.1488 4.10143 16.5237 3.47631C15.8986 2.85118 15.0507 2.5 14.1667 2.5H5.83333C4.94927 2.5 4.10148 2.85118 3.47636 3.47631C2.85124 4.10143 2.5 4.94927 2.5 5.83333V14.1667C2.5 15.0507 2.85124 15.8986 3.47636 16.5237C4.10148 17.1488 4.94927 17.5 5.83333 17.5H10.3833" stroke="#232176" stroke-linecap="round" stroke-linejoin="round"/>
<path d="M12.0003 8.51695L3.18359 3.80859" stroke="#232176" stroke-linecap="round" stroke-linejoin="round"/>
<path d="M3.81689 16.8173L9.08358 6.95898" stroke="#232176" stroke-linecap="round" stroke-linejoin="round"/>
<path d="M15.4165 10C14.9238 9.99893 14.4356 10.0952 13.9802 10.2833C13.5247 10.4713 13.1109 10.7474 12.7624 11.0959C12.414 11.4443 12.1378 11.8582 11.9498 12.3137C11.7617 12.7691 11.6654 13.2573 11.6665 13.75C11.6665 16.25 14.4832 18.3333 15.4165 18.3333C16.3498 18.3333 19.1665 16.2917 19.1665 13.75C19.1665 12.7554 18.7714 11.8016 18.0682 11.0983C17.3649 10.3951 16.4111 10 15.4165 10Z" stroke="#232176" stroke-linecap="round" stroke-linejoin="round"/>
<path d="M15.4168 14.1656C15.3066 14.1652 15.1976 14.1429 15.096 14.1C14.9944 14.0571 14.9024 13.9944 14.8253 13.9157C14.6713 13.7605 14.5844 13.551 14.5835 13.3323C14.5829 13.2226 14.6039 13.114 14.6454 13.0124C14.6869 12.9109 14.748 12.8186 14.8253 12.7406C14.9027 12.6626 14.9948 12.6006 15.0964 12.5582C15.198 12.516 15.3068 12.4941 15.4168 12.4941C15.5268 12.4941 15.6358 12.516 15.7373 12.5582C15.8389 12.6006 15.9311 12.6626 16.0085 12.7406C16.0858 12.8186 16.1468 12.9109 16.1883 13.0124C16.2298 13.114 16.2508 13.2226 16.2502 13.3323C16.2493 13.551 16.1625 13.7605 16.0085 13.9157C15.9313 13.9944 15.8393 14.0571 15.7378 14.1C15.6362 14.1429 15.5271 14.1652 15.4168 14.1656Z" fill="#232176"/>
</svg>
