<svg width="7" height="7" viewBox="0 0 7 7" fill="none" xmlns="http://www.w3.org/2000/svg">
<path d="M3.76022 1.12807H2.25613L1.69915 0.292357C1.61572 0.16733 1.70502 0 1.85543 0H4.16092C4.31133 0 4.40063 0.16733 4.3172 0.292357L3.76022 1.12807ZM2.25613 1.50409H3.76022C3.80487 1.53346 3.8554 1.56637 3.9024 1.60279C4.57924 2.02934 6.01635 2.94825 6.01635 4.88828C6.01635 5.51107 5.51107 6.01635 4.88828 6.01635H1.12807C0.505044 6.01635 0 5.51107 0 4.88828C0 2.94825 1.43711 2.02934 2.10337 1.60279C2.16095 1.56637 2.21148 1.53346 2.25613 1.50409ZM3.24436 2.63215C3.24436 2.50172 3.13861 2.39596 2.9976 2.39596C2.87774 2.39596 2.77199 2.50172 2.77199 2.63215V2.70266C2.70618 2.71676 2.63333 2.73673 2.58515 2.76259C2.41006 2.84249 2.25731 2.99055 2.2197 3.20559C2.19855 3.32544 2.2103 3.44177 2.25966 3.54636C2.30901 3.64976 2.38539 3.72262 2.46294 3.77549C2.59925 3.86832 2.77904 3.92238 2.91652 3.9635L2.94237 3.97056C3.10688 4.02108 3.21734 4.05751 3.28667 4.10804C3.31604 4.12919 3.32662 4.14564 3.33014 4.15622C3.33484 4.16562 3.34189 4.18677 3.33367 4.23377C3.32662 4.2749 3.30429 4.31015 3.23966 4.33718C3.16798 4.36773 3.05165 4.383 2.90124 4.3595C2.83074 4.34775 2.70501 4.30545 2.59338 4.26785C2.56752 4.25845 2.54167 4.25022 2.51817 4.242C2.39479 4.20087 2.26201 4.26785 2.22088 4.39123C2.17975 4.51461 2.24673 4.64739 2.37011 4.67795C2.38421 4.69322 2.40184 4.6991 2.42182 4.70615C2.50407 4.73788 2.66035 4.78723 2.77199 4.81308V4.88828C2.77199 5.01872 2.87774 5.12447 2.9976 5.12447C3.13861 5.12447 3.24436 5.01872 3.24436 4.88828V4.82366C3.30664 4.8119 3.36775 4.7837 3.42415 4.7696C3.60981 4.69087 3.75787 4.53811 3.79665 4.31485C3.8178 4.19264 3.8084 4.07514 3.76139 3.96821C3.71557 3.86245 3.64154 3.78489 3.56281 3.72849C3.42062 3.62391 3.23026 3.56751 3.08808 3.52403L3.0681 3.52168C2.91182 3.47115 2.79901 3.4359 2.72733 3.38655C2.69678 3.3654 2.68738 3.35129 2.68503 3.34542C2.68268 3.34072 2.67563 3.32662 2.68268 3.28667C2.68738 3.26316 2.70501 3.22439 2.77904 3.19149C2.84484 3.15741 2.97175 3.13861 3.11511 3.15036C3.16681 3.16916 3.32544 3.19971 3.37127 3.21146C3.49583 3.24554 3.62509 3.17033 3.65799 3.0446C3.69206 2.92004 3.61686 2.79079 3.49113 2.75789C3.43942 2.74378 3.32192 2.72028 3.24436 2.70618V2.63215Z" fill="#2E90FA"/>
</svg>
