<svg width="24" height="24" viewBox="0 0 24 24" fill="none" xmlns="http://www.w3.org/2000/svg">
<path d="M9.39147 6.01C9.57147 6.26 9.70147 6.49 9.79147 6.71C9.88147 6.92 9.93147 7.13 9.93147 7.32C9.93147 7.56 9.86147 7.8 9.72147 8.03C9.59147 8.26 9.40147 8.5 9.16147 8.74L8.40147 9.53C8.29147 9.64 8.24147 9.77 8.24147 9.93C8.24147 10.01 8.25147 10.08 8.27147 10.16C8.30147 10.24 8.33147 10.3 8.35147 10.36C8.53147 10.69 8.84147 11.12 9.28147 11.64C9.73147 12.16 10.2115 12.69 10.7315 13.22C11.2715 13.75 11.7915 14.24 12.3215 14.69C12.8415 15.13 13.2715 15.43 13.6115 15.61C13.6615 15.63 13.7215 15.66 13.7915 15.69C13.8715 15.72 13.9515 15.73 14.0415 15.73C14.2115 15.73 14.3415 15.67 14.4515 15.56L15.2115 14.81C15.4615 14.56 15.7015 14.37 15.9315 14.25C16.1615 14.11 16.3915 14.04 16.6415 14.04C16.8315 14.04 17.0315 14.08 17.2515 14.17C17.4715 14.26 17.7015 14.39 17.9515 14.56L21.2615 16.91C21.5215 17.09 21.7015 17.3 21.8115 17.55C21.9115 17.8 21.9715 18.05 21.9715 18.33C21.9715 18.69 21.8915 19.06 21.7215 19.42C21.5515 19.78 21.3315 20.12 21.0415 20.44C20.5515 20.98 20.0115 21.37 19.4015 21.62C18.8015 21.87 18.1515 22 17.4515 22C16.4315 22 15.3415 21.76 14.1915 21.27C13.0415 20.78 11.8915 20.12 10.7515 19.29C9.60147 18.45 8.51147 17.52 7.47147 16.49C6.44147 15.45 5.51147 14.36 4.68146 13.22C3.86146 12.08 3.20147 10.94 2.72146 9.81C2.24146 8.67 2.00146 7.58 2.00146 6.54C2.00146 5.86 2.12146 5.21 2.36146 4.61C2.60146 4 2.98146 3.44 3.51147 2.94C4.15147 2.31 4.85147 2 5.59147 2C5.87147 2 6.15147 2.06 6.40147 2.18C6.66147 2.3 6.89147 2.48 7.07147 2.74" stroke="black" stroke-width="1.5" stroke-miterlimit="10" stroke-linecap="round" stroke-linejoin="round"/>
<path d="M18.5 9C18.5 8.4 18.03 7.48 17.33 6.73C16.69 6.04 15.84 5.5 15 5.5" stroke="black" stroke-width="1.5" stroke-linecap="round" stroke-linejoin="round"/>
<path d="M17.01 2.29C16.37 2.1 15.7 2 15 2" stroke="black" stroke-width="1.5" stroke-linecap="round" stroke-linejoin="round"/>
<path d="M22.002 8.99953C22.002 6.62953 20.822 4.52953 19.022 3.26953" stroke="black" stroke-width="1.5" stroke-linecap="round" stroke-linejoin="round"/>
</svg>
