<svg width="24" height="24" viewBox="0 0 24 24" fill="none" xmlns="http://www.w3.org/2000/svg">
<mask id="mask0_527_8432" style="mask-type:alpha" maskUnits="userSpaceOnUse" x="0" y="0" width="24" height="24">
<rect width="24" height="24" rx="8" fill="#D9D9D9"/>
</mask>
<g mask="url(#mask0_527_8432)">
</g>
<g clip-path="url(#clip0_527_8432)">
<path fill-rule="evenodd" clip-rule="evenodd" d="M0 0H24V24H0V0Z" fill="#016C36"/>
<path fill-rule="evenodd" clip-rule="evenodd" d="M0 0H24V24H0V0Z" fill="#016C36"/>
<path d="M11.8865 9.77527C11.8449 9.40102 12.0528 9.02678 12.4271 9.10994C12.7181 9.15153 13.0508 9.44261 12.8845 9.73369C12.635 10.1911 11.9696 10.1911 11.5538 10.4406C11.5954 10.6901 12.8013 10.399 13.0092 10.399C13.2171 10.399 13.425 10.4822 13.3003 10.7317C13.1755 10.9812 12.7597 10.9812 12.5102 11.0228C12.2607 11.0643 11.8449 11.0643 11.7201 11.2723C11.4706 11.6049 11.9696 11.6465 12.136 11.7297C12.5518 11.9376 11.8865 12.1455 11.7201 12.1039C11.0964 11.9792 10.9716 11.6465 10.5974 11.2307C10.2232 11.7297 9.05883 12.8524 8.80933 11.6881C8.3935 11.8544 7.97768 12.0623 7.52026 12.1039C7.72818 11.8128 8.14401 11.6881 8.47667 11.5218C8.8925 11.3138 8.8925 10.9396 9.142 10.6069C9.22516 10.7317 9.142 10.898 9.18358 11.0643C9.51624 10.898 9.93207 10.5653 9.76574 10.1495C9.76574 10.1079 9.26675 9.10994 9.68258 9.27627C10.0568 9.44261 9.93207 9.81685 10.0152 10.1079C10.14 10.6485 9.89049 10.9396 9.47466 11.2723C9.30833 11.397 8.85092 11.896 9.3915 11.896C9.76574 11.896 10.0984 11.4802 10.3063 11.2307C10.5558 10.898 10.4727 10.5653 10.3063 10.1911C10.1816 9.90002 9.89049 9.27627 10.2647 9.06836C10.5558 9.52577 10.6806 10.0664 10.8053 10.6069C10.8885 11.0643 10.9716 11.5218 11.4706 11.6465C11.4291 11.3138 11.637 11.0643 11.9281 10.9396C11.7201 10.7733 10.5558 10.9812 11.0132 10.3574C11.0548 10.0664 11.8865 9.9416 11.8865 9.77527Z" fill="white"/>
<path d="M5.52435 11.3141C5.73227 11.8963 6.43918 11.6884 6.85501 11.522C7.52034 11.1894 7.52034 10.6904 7.52034 10.0251C7.27084 10.1498 7.31242 10.6072 7.22926 10.8151C7.06292 11.1478 6.52235 11.4389 6.1481 11.3973C5.60752 11.3141 5.35802 10.3993 5.77385 10.0666C5.85702 10.3577 5.6491 10.9815 6.1481 11.0231C6.52235 11.0646 7.27084 10.6072 7.14609 10.1914C6.64709 10.3577 6.35601 10.1914 6.52235 9.65082C6.64709 9.15182 7.14609 9.52607 7.354 9.77557C8.14408 9.31815 6.73026 7.57167 7.56192 7.11426C7.72825 7.40534 7.97775 7.77959 7.76983 8.07067C7.52034 8.40333 7.76983 9.11024 7.81142 9.48449C8.22725 9.11024 7.89458 9.77557 8.22725 9.81715C8.43516 9.85873 8.51833 9.31815 8.64308 9.31815C8.68466 9.4429 8.68466 9.81715 8.89257 9.77557C9.14207 9.6924 8.85099 9.35974 9.10049 9.27657C9.18365 9.48449 9.14207 10.1082 8.85099 10.0666C8.60149 10.0251 8.64308 9.85873 8.352 10.0251C8.1025 10.1498 8.01933 10.0251 7.853 9.90032C7.81142 10.3993 7.97775 10.9399 7.68667 11.3973C7.43717 11.7715 6.93817 11.9795 6.52235 12.0626C5.44119 12.2705 5.15011 11.1894 5.52435 10.3161C5.60752 10.5656 5.44119 11.0231 5.52435 11.3141Z" fill="white"/>
<path d="M15.6704 11.5217C15.8783 12.0623 16.2941 10.9395 16.4189 10.7732C16.7516 10.2742 17.2505 11.5633 17.4585 10.7316C17.5832 10.191 17.4169 9.65045 17.3753 9.10987C17.3337 8.73563 17.209 8.40296 16.9595 8.11188C16.71 7.77922 16.4605 7.48814 16.5852 7.07231C17.0011 7.23864 17.0011 7.57131 17.209 7.90397C17.2505 7.65447 17.0842 7.32181 17.2505 7.11389C17.4585 6.82281 17.6248 7.61289 17.6248 7.69605C17.6664 7.90397 17.4585 7.98713 17.5832 8.3198C17.6664 8.5693 17.8327 8.81879 17.999 9.02671C17.9575 8.77721 17.5832 7.07231 17.999 7.07231C18.1238 7.07231 18.2485 7.57131 18.2485 7.65447C18.3317 7.90397 18.1654 8.11188 18.1654 8.40296C18.1238 8.90196 18.207 9.48412 18.5396 9.85837C18.706 10.0663 19.3297 10.8148 18.997 11.0643C18.7475 10.7732 18.5812 10.4405 18.3733 10.1494C18.3733 10.4821 18.4565 10.8564 18.2901 11.1059C18.1238 11.0227 18.207 10.4821 18.207 10.3574C18.207 9.89995 17.9159 9.5257 17.6664 9.15146C17.5832 9.7752 18.0822 10.9395 17.5 11.3969C17.1258 11.7296 16.6268 10.9811 16.5021 11.2722C16.3773 11.4801 16.0862 12.2286 15.7536 12.1454C15.3377 12.0623 15.0467 10.8979 15.5041 10.7732C15.5456 10.9811 15.5456 11.2722 15.6704 11.5217Z" fill="white"/>
<path d="M6.77183 8.69446C7.06291 8.73604 6.77183 7.73805 6.77183 7.57172C6.81341 7.40539 6.93816 7.32222 7.02132 7.48855C7.14607 7.73805 7.14607 8.02913 7.18766 8.27863C7.18766 8.48654 7.22924 8.73604 7.06291 8.90237C6.81341 9.15187 6.48075 9.02712 6.356 8.69446C5.77384 9.19345 6.52233 10.0667 6.02333 10.5657C5.94017 10.1083 6.02333 9.60928 5.857 9.19345C5.77384 8.98554 5.39959 9.06871 5.35801 8.69446C5.35801 8.52813 5.48276 8.07071 5.31642 7.94597C5.23326 8.1123 5.15009 9.40137 4.73426 9.02712C4.4016 8.77762 4.48477 7.94597 4.60951 7.6133C4.85901 7.73805 4.56793 8.65288 4.90059 8.69446C5.06693 8.73604 5.10851 8.02913 5.15009 7.90438C5.27484 7.69647 5.69067 7.11431 5.6075 7.69647C5.56592 7.94597 5.35801 8.73604 5.857 8.69446C5.81542 8.27863 5.77384 7.8628 5.69067 7.44697C5.64909 7.23906 5.77384 6.82323 5.94017 7.19747C6.06492 7.44697 5.98175 7.57172 5.94017 7.82122C5.89859 8.1123 6.02333 8.40338 6.06492 8.65288C6.31442 8.44496 5.98175 7.65489 6.18967 7.32222C6.68866 7.6133 6.14808 8.61129 6.77183 8.69446Z" fill="white"/>
<path d="M12.1359 8.77729C11.928 9.06837 11.5537 8.81888 11.3874 8.61096C11.1795 8.86046 10.7637 9.27629 10.431 8.94362C10.1815 8.69413 10.4726 8.23671 10.2647 8.0288C10.1399 8.23671 9.93199 9.2347 9.55774 8.77729C9.34983 8.52779 9.05875 7.65455 9.51616 7.44664C9.47458 7.7793 9.39141 8.15355 9.59933 8.44463C9.80724 8.73571 10.0152 7.98722 10.0983 7.82088C10.2231 7.5298 10.6389 7.03081 10.5557 7.65455C10.5142 7.90405 10.431 8.48621 10.6805 8.65254C10.8468 8.77729 11.0547 8.56938 11.1379 8.44463C11.3042 8.23671 11.2211 7.90405 11.1795 7.65455C11.1379 7.44664 11.0547 7.19714 11.1795 6.98923C11.3458 6.73973 11.4706 7.32189 11.4706 7.44664C11.4706 7.57139 11.6369 8.86046 11.928 8.44463C12.2191 8.07038 11.429 7.23872 11.9696 7.03081C12.1775 6.94764 12.5517 7.7793 12.1359 7.5298C12.2606 7.90405 12.427 8.44463 12.1359 8.77729Z" fill="white"/>
<path d="M13.716 9.27601C13.7576 9.81659 14.215 11.3136 13.5912 11.6462C13.5081 11.4799 13.5912 11.2304 13.6328 11.0225C13.6744 10.6482 13.5912 10.274 13.5496 9.94134C13.4665 9.15126 13.3833 8.5691 12.8427 7.94536C12.718 7.77902 12.5101 7.65428 12.4685 7.40478C12.4685 7.32161 12.4269 6.94737 12.5932 7.03053C12.718 7.07211 13.4249 7.69586 13.0506 7.69586C13.0922 7.77903 13.2586 8.11169 13.3417 8.11169C13.3417 7.90377 13.0922 7.28003 13.3417 7.15528C13.5496 7.03053 13.7991 7.82061 13.716 7.98694C13.6328 8.19485 13.6328 8.3196 13.716 8.61068C13.7991 8.94335 14.0071 9.23443 14.1734 9.52551C14.4229 9.94134 14.9219 10.5235 14.7971 11.0641C14.5476 10.9393 14.3813 10.3572 14.2566 10.1077C14.1734 9.89975 14.0902 9.69184 13.9655 9.52551C13.9239 9.48393 13.6744 9.15126 13.716 9.35918V9.27601Z" fill="white"/>
<path d="M19.4962 10.0664C19.5378 10.9396 19.2467 12.0624 18.1655 12.0624C18.1655 11.8129 18.7061 11.5634 18.8724 11.4386C19.2883 11.106 19.2467 10.4822 19.2051 10.0248C19.1635 9.40107 19.1219 8.77732 18.9972 8.15358C18.9556 7.77933 18.7477 7.23876 19.0804 6.98926C19.2883 7.15559 19.5793 7.613 19.4546 7.77933C19.2467 8.02883 19.4546 9.90006 19.4962 10.0664Z" fill="white"/>
<path d="M14.1735 11.9373C15.2546 11.3135 14.922 9.98286 14.8388 8.94329C14.7972 8.65221 14.7972 8.36113 14.7556 8.07005C14.7556 7.86213 14.5893 7.57105 14.6725 7.36314C14.8804 6.82256 15.0467 7.32156 15.0883 7.65422C15.1299 7.86213 14.9636 7.90372 15.0051 8.07005C15.0467 8.40271 15.0467 8.73538 15.0883 9.06804C15.1299 9.60862 15.2131 10.1492 15.1715 10.6482C15.0883 11.4383 14.6725 12.3115 13.7161 12.1452C13.7576 12.062 14.0487 12.0204 14.1735 11.9373Z" fill="white"/>
<path d="M15.9199 9.85879C15.9615 10.2746 16.1278 11.0231 15.9199 11.3974C15.7536 11.6469 15.7536 11.231 15.712 11.1894C15.6704 10.8568 15.6704 10.5241 15.6704 10.1499C15.5872 9.23504 15.2961 8.32022 15.2961 7.44698C15.2961 6.32424 16.2526 8.07072 15.712 7.98755C15.7536 8.6113 15.8367 9.23504 15.9199 9.85879Z" fill="white"/>
<path d="M9.14196 7.73736C9.22513 7.94528 8.18555 8.48586 8.0608 8.48586C8.01922 8.27794 8.51822 7.98686 8.64296 7.9037C8.76771 7.77895 8.85088 7.77895 8.8093 7.61261C8.72613 7.44628 8.76771 7.1552 8.97563 7.07204C9.39146 6.94729 9.10038 7.57103 9.14196 7.73736Z" fill="white"/>
<path d="M4.85905 11.4389C4.85905 11.7716 4.9838 11.6053 5.15013 11.5221C5.23329 11.6884 5.02538 12.1458 4.81746 11.9379C4.52638 11.6468 4.77588 10.9815 4.90063 10.6904C4.9838 10.8983 4.81747 11.231 4.85905 11.4389Z" fill="white"/>
<path d="M16.5852 8.86003C16.6268 8.6937 16.5021 8.52736 16.6268 8.36103C16.7931 8.15312 16.9595 8.40262 16.8763 8.48578C16.7931 8.56895 16.6684 8.40262 16.6684 8.65211C16.6684 8.77686 16.7516 9.02636 16.6268 9.15111C16.5436 9.10953 16.1694 8.56895 16.211 8.48578C16.3773 8.31945 16.5436 8.81844 16.5852 8.86003Z" fill="white"/>
<path d="M5.73228 9.56757C5.64911 9.7339 4.69271 10.2745 4.65112 10.1497C4.65112 10.025 5.85703 9.31807 5.73228 9.56757Z" fill="white"/>
<path d="M12.8012 11.6879C12.6765 12.0621 13.2171 11.7295 13.3418 11.6879C13.1755 11.979 12.5933 12.2284 12.6765 11.6879C12.6349 11.6879 12.5517 11.7295 12.5101 11.7295C12.427 11.6463 12.926 11.3136 12.8012 11.6879Z" fill="white"/>
<path d="M17.3339 11.5635C17.4586 11.5635 17.6665 11.9377 17.5418 12.0209C17.4586 12.1041 17.0844 12.1456 17.2923 11.9793C17.5418 11.7298 17.3339 11.5635 17.3339 11.5635Z" fill="white"/>
<path d="M11.4707 9.44245C11.5123 9.35928 11.5123 9.23453 11.5538 9.15137C11.9697 9.48403 10.8885 10.0246 11.0964 9.23453C11.1796 9.3177 11.1796 9.44245 11.2628 9.48403C11.2628 9.40086 11.3043 9.27612 11.3043 9.19295C11.3875 9.27612 11.3875 9.40086 11.4707 9.44245Z" fill="white"/>
<path d="M16.3357 9.98328C16.211 9.81695 16.9595 9.35953 17.0842 9.27637C17.1674 9.40112 16.5852 9.85853 16.3357 9.98328Z" fill="white"/>
<path d="M18.6643 8.31969C18.5812 8.07019 18.3317 7.5712 18.5812 7.36328C18.7475 7.48803 18.8307 8.11177 18.6643 8.31969Z" fill="white"/>
<path d="M14.1319 7.48844C14.0903 7.40528 13.9656 7.32211 13.9656 7.19736C14.0072 7.03103 14.0903 7.07261 14.1735 7.15578C14.2982 7.32211 14.3814 7.77952 14.1735 7.90427C14.1735 7.77952 14.2151 7.61319 14.1319 7.48844Z" fill="white"/>
<path d="M9.0588 8.61125C9.0588 8.86075 8.64297 9.11025 8.60138 8.77759C8.5598 8.65284 8.76772 8.19543 8.85088 8.32017C8.68455 8.69442 8.68455 8.81917 9.0588 8.61125Z" fill="white"/>
<path d="M14.2567 8.15389C14.423 8.56972 14.3399 8.19547 14.5062 8.1123C14.7973 8.65288 13.8825 8.52813 14.0904 8.19547C14.132 8.23705 14.1736 8.32022 14.1736 8.3618C14.2151 8.32022 14.2151 8.23705 14.2567 8.15389Z" fill="white"/>
<path d="M16.918 10.066C16.7101 9.8997 16.9596 9.69179 17.0843 9.8997C17.1675 10.0244 17.1675 10.3571 17.0012 10.4403C17.0012 10.3155 17.0427 10.1492 16.918 10.066Z" fill="white"/>
<path d="M8.39337 10.981C8.39337 10.8978 8.35179 10.2741 8.47654 10.3572C8.64287 10.4404 8.60129 10.8978 8.39337 10.981Z" fill="white"/>
<path d="M6.64707 7.07186C6.68865 7.19661 6.73023 7.36294 6.8134 7.15502C7.14606 7.52927 5.98174 7.40452 6.39757 7.03027C6.39757 7.07186 6.48074 7.32135 6.64707 7.07186Z" fill="white"/>
<path d="M10.8885 7.9875C10.8885 7.82117 10.639 7.11426 10.8469 7.11426C11.0964 7.15584 11.0548 7.77958 10.8885 7.9875Z" fill="white"/>
<path d="M5.06683 7.61323C4.94208 7.57165 5.15 7.36373 5.06683 7.1974C4.98367 7.23898 4.9005 7.11423 4.98367 7.03107C5.31633 6.78157 5.19158 7.61323 5.06683 7.61323Z" fill="white"/>
<path d="M15.8368 16.0547L15.6705 15.5557L15.5041 16.0547H6.39746C6.39746 16.0547 6.48063 16.8032 7.39545 16.8032H15.4625V17.3853H17.6664V16.0547H15.8368ZM17.2506 17.0527H15.7536V16.6368H17.2506V17.0527Z" fill="white"/>
</g>
<rect x="0.1" y="0.1" width="23.8" height="23.8" rx="7.9" stroke="#B8B8B8" stroke-width="0.2"/>
<defs>
<clipPath id="clip0_527_8432">
<rect width="24" height="24" rx="8" fill="white"/>
</clipPath>
</defs>
</svg>
