<svg width="24" height="24" viewBox="0 0 24 24" fill="none" xmlns="http://www.w3.org/2000/svg">
<g clip-path="url(#clip0_3264_6465)">
<path d="M8.25 12.75C8.87132 12.75 9.375 12.2463 9.375 11.625C9.375 11.0037 8.87132 10.5 8.25 10.5C7.62868 10.5 7.125 11.0037 7.125 11.625C7.125 12.2463 7.62868 12.75 8.25 12.75Z" fill="#051D30"/>
<path d="M9 9H7.5V6H9C9.39782 6 9.77936 5.84196 10.0607 5.56066C10.342 5.27936 10.5 4.89782 10.5 4.5C10.5 4.10218 10.342 3.72064 10.0607 3.43934C9.77936 3.15804 9.39782 3 9 3H7.5C7.10232 3.00046 6.72105 3.15864 6.43984 3.43984C6.15864 3.72105 6.00046 4.10232 6 4.5V4.875H4.5V4.5C4.50089 3.70462 4.81725 2.94208 5.37967 2.37967C5.94208 1.81725 6.70462 1.50089 7.5 1.5H9C9.79565 1.5 10.5587 1.81607 11.1213 2.37868C11.6839 2.94129 12 3.70435 12 4.5C12 5.29565 11.6839 6.05871 11.1213 6.62132C10.5587 7.18393 9.79565 7.5 9 7.5V9Z" fill="#051D30"/>
<path d="M16.8359 15.7754C17.5861 14.8776 18.1362 13.8301 18.4495 12.7028C18.7628 11.5755 18.8321 10.3944 18.6528 9.23819C18.4734 8.08201 18.0496 6.97737 17.4095 5.99797C16.7694 5.01858 15.9278 4.18696 14.9408 3.55859L14.1916 4.85609C15.1695 5.49587 15.9645 6.37865 16.4987 7.418C17.0329 8.45734 17.2881 9.61762 17.2391 10.7852C17.1902 11.9528 16.8389 13.0876 16.2195 14.0786C15.6002 15.0696 14.7341 15.8828 13.7061 16.4385C12.678 16.9941 11.5233 17.2733 10.355 17.2486C9.18663 17.2239 8.04472 16.8962 7.04109 16.2976C6.03745 15.699 5.20649 14.85 4.62957 13.8337C4.05266 12.8174 3.74958 11.6687 3.75 10.5001H2.25C2.2488 12.068 2.69472 13.6037 3.53546 14.927C4.3762 16.2504 5.57688 17.3066 6.99668 17.9717C8.41647 18.6368 9.99648 18.8832 11.5514 18.682C13.1063 18.4809 14.5716 17.8405 15.7754 16.836L21.4394 22.5001L22.5 21.4396L16.8359 15.7754Z" fill="#051D30"/>
</g>
<defs>
<clipPath id="clip0_3264_6465">
<rect width="24" height="24" fill="white"/>
</clipPath>
</defs>
</svg>
