<svg width="24" height="24" viewBox="0 0 24 24" fill="none" xmlns="http://www.w3.org/2000/svg">
<path d="M15 12C15 10.34 13.66 9 12 9C10.34 9 9 10.34 9 12C9 13.66 10.34 15 12 15C12.41 15 12.81 14.92 13.17 14.76" stroke="black" stroke-width="1.5" stroke-miterlimit="10" stroke-linecap="round" stroke-linejoin="round"/>
<path d="M6.88123 20.5803L7.97123 21.2103C8.76123 21.6803 9.78123 21.4003 10.2512 20.6103L10.3612 20.4203C11.2612 18.8503 12.7412 18.8503 13.6512 20.4203L13.7612 20.6103C14.2312 21.4003 15.2512 21.6803 16.0412 21.2103L17.7712 20.2203C18.6812 19.7003 18.9912 18.5303 18.4712 17.6303C17.5612 16.0603 18.3012 14.7803 20.1112 14.7803C21.1512 14.7803 22.0112 13.9303 22.0112 12.8803V11.1203C22.0112 10.0803 21.1612 9.22031 20.1112 9.22031C19.1012 9.22031 18.4212 8.82031 18.1812 8.19031C17.9912 7.70031 18.0712 7.06031 18.4712 6.37031C18.9912 5.46031 18.6812 4.30031 17.7712 3.78031L16.9612 3.32031" stroke="black" stroke-width="1.5" stroke-miterlimit="10" stroke-linecap="round" stroke-linejoin="round"/>
<path d="M13.6416 3.57749C12.7416 5.14749 11.2616 5.14749 10.3516 3.57749L10.2416 3.3875C9.78159 2.5975 8.76159 2.3175 7.97159 2.7875L6.24159 3.77749C5.33159 4.29749 5.02159 5.46749 5.54159 6.37749C6.45159 7.93749 5.71159 9.21749 3.90159 9.21749C2.86159 9.21749 2.00159 10.0675 2.00159 11.1175V12.8775C2.00159 13.9175 2.85159 14.7775 3.90159 14.7775C5.71159 14.7775 6.45159 16.0575 5.54159 17.6275" stroke="black" stroke-width="1.5" stroke-miterlimit="10" stroke-linecap="round" stroke-linejoin="round"/>
</svg>
