<svg width="102" height="102" viewBox="0 0 102 102" fill="none" xmlns="http://www.w3.org/2000/svg">
<path d="M15.6668 25.5C10.146 32.5975 6.8335 41.4375 6.8335 51C6.8335 74.46 26.6202 93.5 51.0002 93.5C75.3802 93.5 95.1668 74.46 95.1668 51C95.1668 27.54 75.3802 8.5 51.0002 8.5C44.6843 8.5 38.6335 9.775 33.201 12.1125" stroke="#FF0500" stroke-width="3" stroke-linecap="round" stroke-linejoin="round"/>
<path d="M68.7085 52.917V57.2487C68.7085 65.8162 65.2776 69.247 56.7101 69.247H56.461C48.756 69.247 45.2101 66.4678 44.5776 59.6828" stroke="#FF0500" stroke-width="3" stroke-linecap="round" stroke-linejoin="round"/>
<path d="M44.5581 42.49C45.1523 35.59 48.6981 32.7725 56.4606 32.7725H56.7098C65.2773 32.7725 68.7081 36.2033 68.7081 44.7708" stroke="#FF0500" stroke-width="3" stroke-linecap="round" stroke-linejoin="round"/>
<path d="M56.2501 51H34.4385" stroke="#FF0500" stroke-width="3" stroke-linecap="round" stroke-linejoin="round"/>
<path d="M38.7123 44.5791L32.2915 50.9999L38.7123 57.4208" stroke="#FF0500" stroke-width="3" stroke-linecap="round" stroke-linejoin="round"/>
</svg>
