<svg width="20" height="16" viewBox="0 0 20 16" fill="none" xmlns="http://www.w3.org/2000/svg">
<path fill-rule="evenodd" clip-rule="evenodd" d="M9.83439 10.6327C10.1468 10.3203 10.6533 10.3203 10.9657 10.6327L14.4 14.067L17.8342 10.6327C18.1466 10.3203 18.6532 10.3203 18.9656 10.6327C19.2779 10.9451 19.2779 11.4517 18.9656 11.7641L14.9656 15.764C14.6532 16.0764 14.1467 16.0764 13.8343 15.764L9.83439 11.7641C9.522 11.4517 9.522 10.9451 9.83439 10.6327Z" fill="#232176"/>
<path fill-rule="evenodd" clip-rule="evenodd" d="M14.3996 4.80078C14.8414 4.80078 15.1996 5.15893 15.1996 5.60076V15.2006C15.1996 15.6424 14.8414 16.0005 14.3996 16.0005C13.9578 16.0005 13.5996 15.6424 13.5996 15.2006V5.60076C13.5996 5.15893 13.9578 4.80078 14.3996 4.80078Z" fill="#232176"/>
<path fill-rule="evenodd" clip-rule="evenodd" d="M0 7.19842C0 6.75659 0.358168 6.39844 0.799983 6.39844H7.99983C8.44166 6.39844 8.79981 6.75659 8.79981 7.19842C8.79981 7.64025 8.44166 7.9984 7.99983 7.9984H0.799983C0.358168 7.9984 0 7.64025 0 7.19842Z" fill="#232176"/>
<path fill-rule="evenodd" clip-rule="evenodd" d="M0 0.799983C0 0.358168 0.358168 0 0.799983 0H14.3997C14.8415 0 15.1997 0.358168 15.1997 0.799983C15.1997 1.2418 14.8415 1.59997 14.3997 1.59997H0.799983C0.358168 1.59997 0 1.2418 0 0.799983Z" fill="#232176"/>
<path fill-rule="evenodd" clip-rule="evenodd" d="M0 13.6008C0 13.1589 0.358168 12.8008 0.799983 12.8008H6.39986C6.84169 12.8008 7.19984 13.1589 7.19984 13.6008C7.19984 14.0426 6.84169 14.4007 6.39986 14.4007H0.799983C0.358168 14.4007 0 14.0426 0 13.6008Z" fill="#232176"/>
</svg>
