<svg width="7" height="6" viewBox="0 0 7 6" fill="none" xmlns="http://www.w3.org/2000/svg">
<path d="M4.06826 1.65597L5.70534 1.88948C5.84091 1.90821 5.95483 2.00073 5.99812 2.12741C6.04141 2.25518 6.0061 2.39397 5.90812 2.48869L4.72104 3.61442L5.00129 5.2292C5.02408 5.36138 4.96825 5.49576 4.85433 5.57396C4.74155 5.65217 4.59231 5.66208 4.47041 5.5993L3.00763 4.84478L1.546 5.5993C1.42296 5.66208 1.27372 5.65217 1.16094 5.57396C1.04815 5.49576 0.99119 5.36138 1.01511 5.2292L1.29537 3.61442L0.108057 2.48869C0.00996886 2.39397 -0.0248917 2.25518 0.0181713 2.12741C0.0611204 2.00073 0.174702 1.90821 0.311296 1.88948L1.94701 1.65597L2.68067 0.198368C2.74105 0.0770282 2.86865 0 3.00763 0C3.14776 0 3.27535 0.0770282 3.33573 0.198368L4.06826 1.65597Z" fill="#FFD32D"/>
</svg>
