<svg width="37" height="37" viewBox="0 0 37 37" fill="none" xmlns="http://www.w3.org/2000/svg">
<g clip-path="url(#clip0_1499_7754)">
<path d="M33.1967 10.9638C33.2201 11.2924 33.2201 11.6212 33.2201 11.9498C33.2201 21.9745 25.5901 33.5253 11.6447 33.5253C7.34833 33.5253 3.35724 32.281 0 30.1212C0.610428 30.1916 1.1973 30.2151 1.83121 30.2151C5.3762 30.2151 8.63957 29.0178 11.2455 26.9752C7.91178 26.9048 5.118 24.7214 4.15542 21.7163C4.625 21.7867 5.09451 21.8337 5.58758 21.8337C6.26839 21.8337 6.94928 21.7397 7.58312 21.5755C4.10852 20.8711 1.50247 17.8191 1.50247 14.1332V14.0393C2.51195 14.6028 3.68591 14.9549 4.9301 15.0018C2.88759 13.6401 1.54945 11.3159 1.54945 8.68648C1.54945 7.27788 1.92501 5.98663 2.58241 4.85972C6.31529 9.46124 11.9264 12.4663 18.2182 12.795C18.1008 12.2315 18.0303 11.6447 18.0303 11.0577C18.0303 6.87875 21.4111 3.47461 25.6135 3.47461C27.7968 3.47461 29.7689 4.39021 31.1541 5.86928C32.8678 5.54061 34.5112 4.9067 35.9669 4.03806C35.4034 5.79889 34.2061 7.27795 32.6331 8.21697C34.1592 8.05271 35.6382 7.63003 36.9999 7.04316C35.967 8.54563 34.6757 9.88378 33.1967 10.9638Z" fill="#000C66"/>
</g>
<defs>
<clipPath id="clip0_1499_7754">
<rect width="37" height="37" fill="white"/>
</clipPath>
</defs>
</svg>
