<svg width="20" height="20" viewBox="0 0 20 20" fill="none" xmlns="http://www.w3.org/2000/svg">
<mask id="mask0_2356_12469" style="mask-type:luminance" maskUnits="userSpaceOnUse" x="0" y="0" width="20" height="20">
<path d="M19.5 19.5V0.500002H0.5V19.5H19.5Z" fill="white" stroke="white"/>
</mask>
<g mask="url(#mask0_2356_12469)">
<path d="M10.0002 4.03309C9.29631 4.03309 8.63475 3.95789 8.05924 3.82578C7.60885 3.72238 7.1792 4.06312 7.1792 4.52523V7.23398C7.1792 8.68621 8.31623 10.0127 10.0365 10.0146C11.568 10.0164 12.8212 8.7448 12.8212 7.21332V4.52523C12.8212 4.06312 12.3915 3.72238 11.9411 3.82578C11.3656 3.95789 10.704 4.03309 10.0002 4.03309Z" stroke="white" stroke-miterlimit="10" stroke-linecap="round" stroke-linejoin="round"/>
<path d="M6.80279 5.16625C6.93482 5.16625 7.06143 5.18934 7.17896 5.23141V4.52387C7.17896 4.06176 7.60861 3.72106 8.059 3.82442C8.63451 3.95653 9.29607 4.03176 9.99994 4.03176C10.7038 4.03176 11.3654 3.95653 11.9409 3.82442C12.3913 3.72106 12.8209 4.06176 12.8209 4.52387V5.23141C12.9385 5.18934 13.0651 5.16625 13.1971 5.16625C13.448 5.16625 13.6795 5.24903 13.8659 5.38867L13.9721 3.51035C13.982 3.33422 14.0109 3.16 14.0584 2.99008C14.1684 2.59613 14.3299 1.67856 13.885 0.583478C13.8385 0.468947 13.6972 0.426603 13.5949 0.496095C13.3422 0.667697 12.7999 0.88172 11.8227 0.618361C10.4294 0.242892 7.92822 -0.192616 7.12682 1.72625C7.05389 1.90094 6.90525 2.03508 6.72123 2.07957C6.4276 2.15059 6.021 2.35254 6.021 2.92656C6.021 3.42442 6.081 4.51485 6.13447 5.38832C6.3208 5.24887 6.55213 5.16625 6.80279 5.16625Z" stroke="white" stroke-miterlimit="10" stroke-linecap="round" stroke-linejoin="round"/>
<path d="M13.1971 5.16633C13.0651 5.16633 12.9385 5.18942 12.821 5.23149V7.21207C12.821 7.25266 12.8196 7.29297 12.8179 7.33324C12.9363 7.37598 13.064 7.39942 13.1971 7.39942C13.8138 7.39942 14.3137 6.89953 14.3137 6.28285C14.3137 5.66621 13.8138 5.16633 13.1971 5.16633Z" stroke="white" stroke-miterlimit="10" stroke-linecap="round" stroke-linejoin="round"/>
<path d="M7.17901 7.2327V5.23149C7.06144 5.18938 6.93487 5.16633 6.80284 5.16633C6.18616 5.16633 5.68628 5.66621 5.68628 6.28285C5.68628 6.89949 6.18616 7.39942 6.80284 7.39942C6.93577 7.39942 7.06323 7.37606 7.18147 7.33344C7.18026 7.29988 7.17901 7.26637 7.17901 7.2327Z" stroke="white" stroke-miterlimit="10" stroke-linecap="round" stroke-linejoin="round"/>
<path d="M14.8525 19.6289V14.3422" stroke="white" stroke-miterlimit="10" stroke-linecap="round" stroke-linejoin="round"/>
<path d="M5.14771 14.3422V19.6289" stroke="white" stroke-miterlimit="10" stroke-linecap="round" stroke-linejoin="round"/>
<path d="M11.0529 12.5342C11.1446 12.67 11.3334 12.697 11.4595 12.5924L13.0627 11.263C12.3786 10.998 11.8105 10.778 11.7394 10.7505C11.6938 10.7329 11.6552 10.7037 11.6252 10.6677L10.6437 11.4816C10.534 11.5725 10.5112 11.7319 10.5909 11.85L11.0529 12.5342Z" stroke="white" stroke-miterlimit="10" stroke-linecap="round" stroke-linejoin="round"/>
<path d="M8.54062 12.5924C8.66671 12.697 8.85554 12.67 8.94718 12.5342L9.40921 11.85C9.48894 11.7319 9.46612 11.5725 9.35644 11.4816L8.37401 10.6669C8.35733 10.6855 8.33878 10.7014 8.31917 10.7148L6.93042 11.2571L8.54062 12.5924Z" stroke="white" stroke-miterlimit="10" stroke-linecap="round" stroke-linejoin="round"/>
<path d="M10.5328 13.1427H9.46718L8.78394 19.707H11.216L10.5328 13.1427Z" stroke="white" stroke-miterlimit="10" stroke-linecap="round" stroke-linejoin="round"/>
<path d="M8.94189 18.1893L10.4597 19.707H11.216L11.1102 18.691L9.099 16.6798L8.94189 18.1893Z" stroke="white" stroke-miterlimit="10" stroke-linecap="round" stroke-linejoin="round"/>
<path d="M9.25024 15.2267L10.924 16.9004L10.7304 15.0402L9.40735 13.7171L9.25024 15.2267Z" stroke="white" stroke-miterlimit="10" stroke-linecap="round" stroke-linejoin="round"/>
<path d="M10.591 11.8496C10.5524 11.7925 10.5381 11.7257 10.5457 11.6616H9.45448C9.46218 11.7257 9.4478 11.7925 9.40921 11.8496L9.0144 12.4343L9.46733 13.1426H10.5329L10.9858 12.4343L10.591 11.8496Z" stroke="white" stroke-miterlimit="10" stroke-linecap="round" stroke-linejoin="round"/>
<path d="M7.61401 19.707H16.6962C16.9769 19.707 17.2044 19.4795 17.2044 19.1989V17.3633" stroke="white" stroke-miterlimit="10" stroke-linecap="round" stroke-linejoin="round"/>
<path d="M17.2042 15.9961V14.6414C17.2042 13.5626 16.5135 12.6195 15.6793 12.2761C15.4896 12.2027 11.9248 10.8221 11.7392 10.7503C11.6312 10.7085 11.5594 10.6045 11.5591 10.488L11.5583 9.56125C11.1214 9.84711 10.6001 10.014 10.0402 10.014C9.42276 10.014 8.88093 9.84285 8.43909 9.55711L8.43913 10.4863C8.43913 10.6025 8.38327 10.6709 8.31898 10.7146L4.32062 12.2761C3.66862 12.5445 2.79565 13.3887 2.79565 14.6414V19.1988C2.79565 19.4795 3.02315 19.707 3.30382 19.707H6.24667" stroke="white" stroke-miterlimit="10" stroke-linecap="round" stroke-linejoin="round"/>
</g>
</svg>
