<svg width="13" height="13" viewBox="0 0 13 13" fill="none" xmlns="http://www.w3.org/2000/svg">
<path d="M9.81183 2.72235C10.321 3.23194 10.4601 3.96048 10.2799 4.60481C10.8753 4.92012 11.2807 5.54682 11.2807 6.26753C11.2807 6.98824 10.8753 7.61494 10.2799 7.93025C10.4777 8.57458 10.321 9.2855 9.81183 9.81232C9.28501 10.3215 8.57409 10.4606 7.92976 10.2804C7.61445 10.8758 6.98775 11.2812 6.26704 11.2812C5.54633 11.2812 4.91963 10.8758 4.60432 10.2804C3.95999 10.4782 3.23145 10.3215 2.72186 9.81232C2.21227 9.2855 2.05638 8.57458 2.25418 7.93025C1.65882 7.61494 1.25342 6.98824 1.25342 6.26753C1.25342 5.54682 1.65882 4.92012 2.25418 4.60481C2.03876 3.96048 2.21227 3.23194 2.72186 2.72235C3.23145 2.21276 3.95999 2.05687 4.60432 2.25467C4.91963 1.6593 5.54633 1.25391 6.26704 1.25391C6.98775 1.25391 7.61445 1.6593 7.92976 2.25467C8.57409 2.03924 9.28501 2.21276 9.81183 2.72235Z" fill="#00AB55"/>
<path d="M4.38672 6.26708L5.41855 7.29891C5.54092 7.42128 5.73933 7.42128 5.8617 7.29891L8.14694 5.01367" stroke="white" stroke-width="0.752044" stroke-linecap="round"/>
</svg>
